<svg width="24" height="24" viewBox="0 0 24 24" fill="none" xmlns="http://www.w3.org/2000/svg">
<path d="M2.559 1.65869C1.96948 1.65869 1.4058 1.66387 0.836964 1.65869C0.195723 1.64318 -0.192124 1.00194 0.0974687 0.44861C0.252607 0.159017 0.50083 0.00387848 0.831793 0.00387848C1.64886 -0.00129283 2.47109 -0.00129283 3.28816 0.00387848C3.76909 0.0090498 4.08971 0.314156 4.14142 0.800258C4.25002 1.80866 4.35344 2.82224 4.45687 3.83064C4.46721 3.92372 4.48273 4.01681 4.50341 4.13575C4.61718 4.13575 4.72578 4.13575 4.83955 4.13575C10.5693 4.13575 16.3043 4.13575 22.0341 4.13575C22.9339 4.13575 23.6217 4.63736 23.7561 5.4596C23.813 5.79573 23.7561 6.1629 23.6837 6.5042C23.058 9.46736 22.4271 12.4305 21.7807 15.3885C21.517 16.6038 20.5344 17.3743 19.2881 17.3743C15.0322 17.3743 10.771 17.3795 6.51505 17.3743C5.13431 17.3743 4.12074 16.4228 3.98111 15.0524C3.73289 12.6736 3.46915 10.2896 3.22093 7.9108C3.00374 5.87847 2.79688 3.85133 2.58486 1.81901C2.57969 1.77763 2.56935 1.73626 2.559 1.65869ZM4.66889 5.80608C4.76715 6.74725 4.8654 7.65223 4.96366 8.56238C5.18602 10.6671 5.40839 12.777 5.63076 14.8817C5.69281 15.4557 5.99275 15.7195 6.57193 15.7195C10.7917 15.7195 15.0166 15.7195 19.2364 15.7195C19.7794 15.7195 20.0638 15.4919 20.1776 14.9593C20.7464 12.3168 21.3101 9.67421 21.879 7.03685C21.9669 6.62831 22.0496 6.22495 22.1427 5.80608C16.2991 5.80608 10.4918 5.80608 4.66889 5.80608Z" fill="#232323"/>
<path d="M7.44583 23.9988C6.0806 23.9988 4.9636 22.8766 4.96877 21.5114C4.96877 20.1462 6.09095 19.0292 7.45617 19.0343C8.82139 19.0343 9.93839 20.1513 9.93322 21.5217C9.92805 22.8818 8.81105 23.9988 7.44583 23.9988ZM8.27323 21.5166C8.27323 21.0718 7.90607 20.6943 7.45617 20.6892C7.01144 20.684 6.62876 21.0511 6.62359 21.501C6.61325 21.9561 6.99592 22.344 7.451 22.344C7.9009 22.3388 8.27323 21.9665 8.27323 21.5166Z" fill="#232323"/>
<path d="M17.3745 23.9988C16.0093 23.9988 14.8923 22.8766 14.8975 21.5114C14.8975 20.1462 16.0196 19.0292 17.3849 19.0343C18.7501 19.0343 19.8671 20.1513 19.8619 21.5217C19.8567 22.8818 18.7397 23.9988 17.3745 23.9988ZM18.2019 21.5269C18.2071 21.0822 17.8399 20.6995 17.3952 20.6892C16.9505 20.6788 16.5626 21.046 16.5523 21.4907C16.5419 21.9458 16.9194 22.3388 17.3745 22.3388C17.8192 22.344 18.1967 21.9716 18.2019 21.5269Z" fill="#232323"/>
</svg>
