<svg width="24" height="24" viewBox="0 0 24 24" fill="none" xmlns="http://www.w3.org/2000/svg">
<mask id="mask0_19_14" style="mask-type:luminance" maskUnits="userSpaceOnUse" x="0" y="0" width="24" height="24">
<path d="M24 0H0V24H24V0Z" fill="white"/>
</mask>
<g mask="url(#mask0_19_14)">
<mask id="mask1_19_14" style="mask-type:luminance" maskUnits="userSpaceOnUse" x="2" y="2" width="20" height="20">
<path d="M21.7776 2.80359H2.7776V21.8036H21.7776V2.80359Z" fill="white"/>
</mask>
<g mask="url(#mask1_19_14)">
<path d="M4.82318 4.11763C4.35211 4.11763 3.90169 4.12173 3.44714 4.11763C2.93475 4.10535 2.62483 3.59771 2.85624 3.15965C2.9802 2.93039 3.17855 2.80757 3.44301 2.80757C4.09591 2.80348 4.75293 2.80348 5.40583 2.80757C5.79013 2.81167 6.04632 3.05321 6.08764 3.43804C6.17442 4.23636 6.25706 5.03878 6.33971 5.83709C6.34797 5.91078 6.36037 5.98448 6.3769 6.07864C6.46781 6.07864 6.55459 6.07864 6.6455 6.07864C11.224 6.07864 15.8067 6.07864 20.3852 6.07864C21.1042 6.07864 21.6538 6.47575 21.7612 7.12669C21.8067 7.39279 21.7612 7.68347 21.7033 7.95366C21.2034 10.2995 20.6992 12.6453 20.1827 14.9871C19.972 15.9492 19.1868 16.5591 18.1909 16.5591C14.7902 16.5591 11.3852 16.5633 7.98434 16.5591C6.88103 16.5591 6.07112 15.8059 5.95954 14.721C5.7612 12.8378 5.55045 10.9504 5.35211 9.06722C5.17856 7.45829 5.01326 5.85347 4.84384 4.24455C4.83971 4.21179 4.83145 4.17904 4.82318 4.11763ZM6.50913 7.40098C6.58765 8.14608 6.66616 8.86252 6.74467 9.58305C6.92235 11.2493 7.10004 12.9196 7.27773 14.5858C7.32731 15.0403 7.56699 15.2491 8.02979 15.2491C11.4017 15.2491 14.7777 15.2491 18.1496 15.2491C18.5835 15.2491 18.8108 15.0689 18.9017 14.6473C19.3562 12.5553 19.8067 10.4633 20.2612 8.37534C20.3315 8.05192 20.3976 7.73259 20.472 7.40098C15.8025 7.40098 11.1621 7.40098 6.50913 7.40098Z" fill="#FFF8FB"/>
<path d="M8.72813 21.8036C7.63721 21.8036 6.74465 20.9152 6.74878 19.8344C6.74878 18.7536 7.64548 17.8693 8.73639 17.8734C9.8273 17.8734 10.7199 18.7577 10.7157 19.8426C10.7116 20.9193 9.81903 21.8036 8.72813 21.8036ZM9.38928 19.8385C9.38928 19.4864 9.09589 19.1875 8.73639 19.1835C8.38102 19.1794 8.07523 19.47 8.0711 19.8262C8.06284 20.1865 8.36862 20.4935 8.73226 20.4935C9.09176 20.4894 9.38928 20.1947 9.38928 19.8385Z" fill="#FFF8FB"/>
<path d="M16.6619 21.8036C15.571 21.8036 14.6784 20.9152 14.6826 19.8344C14.6826 18.7536 15.5792 17.8693 16.6702 17.8734C17.7611 17.8734 18.6536 18.7577 18.6495 19.8426C18.6453 20.9193 17.7528 21.8036 16.6619 21.8036ZM17.323 19.8467C17.3272 19.4946 17.0338 19.1916 16.6784 19.1835C16.3231 19.1753 16.0131 19.466 16.0049 19.818C15.9966 20.1783 16.2982 20.4894 16.6619 20.4894C17.0172 20.4935 17.3189 20.1987 17.323 19.8467Z" fill="#FFF8FB"/>
</g>
</g>
</svg>
