<svg width="25" height="21" viewBox="0 0 25 21" fill="none" xmlns="http://www.w3.org/2000/svg">
<mask id="mask0_42_746" style="mask-type:luminance" maskUnits="userSpaceOnUse" x="0" y="0" width="25" height="21">
<path d="M25 0H0V21H25V0Z" fill="white"/>
</mask>
<g mask="url(#mask0_42_746)">
<path d="M12.4956 21C12.2704 21 12.0548 20.9183 11.8583 20.7594C11.2882 20.292 10.7181 19.82 10.1479 19.3525C8.3417 17.8593 6.46837 16.3208 4.64776 14.7867C3.38291 13.7202 2.3624 12.6218 1.53354 11.4281C0.0866224 9.34948 -0.339786 7.18911 0.268685 5.00606C0.925066 2.646 2.38635 1.08472 4.6238 0.367626C5.37601 0.122542 6.11862 0 6.8325 0C8.28421 0 9.6353 0.503783 10.8523 1.49319C11.4799 2.00605 12.0165 2.62784 12.5004 3.39032C12.5627 3.31317 12.6202 3.23147 12.6776 3.15432C12.9603 2.78669 13.2526 2.40091 13.5735 2.05144C14.5893 0.957641 15.8206 0.299547 17.2244 0.0953102C17.6077 0.0408473 17.9862 0.0136158 18.3503 0.0136158C19.8116 0.0136158 21.1292 0.453858 22.2695 1.32072C24.1811 2.77307 25.0962 4.79728 24.9908 7.33435C24.9333 8.70046 24.4446 10.0303 23.4959 11.401C22.327 13.0848 20.8081 14.4554 19.4715 15.5674C17.991 16.8064 16.4674 18.0454 14.9966 19.2436C14.3977 19.7292 13.8035 20.2194 13.2047 20.7051C12.9843 20.9047 12.7399 21 12.4956 21ZM6.70794 1.82451C5.36643 1.82451 4.07282 2.40999 3.24396 3.39032C1.72997 5.17852 1.5 7.21181 2.55404 9.44025C3.1194 10.6384 4.02492 11.6142 4.83461 12.4084C6.46358 14.006 8.27942 15.4675 10.0377 16.8835C10.8523 17.5371 11.6907 18.2133 12.5052 18.8987C13.1136 18.3948 13.7317 17.8911 14.3306 17.3963C15.8494 16.1483 17.4256 14.8593 18.9492 13.5704C20.3818 12.3585 21.3975 11.2376 22.1449 10.0348C23.0265 8.61877 23.2996 7.15734 22.9498 5.69138C22.5185 3.86233 21.4598 2.65054 19.8021 2.08774C19.2702 1.9062 18.748 1.81544 18.2449 1.81544C17.3729 1.81544 16.5345 2.08774 15.7535 2.61876C14.9295 3.18154 14.2875 3.98034 13.7317 5.12859C13.6646 5.26476 13.6071 5.40545 13.5449 5.55522C13.497 5.67323 13.4443 5.8003 13.3868 5.92285C13.2239 6.27686 12.9172 6.47202 12.5148 6.47655H12.51C12.1171 6.47655 11.8056 6.28594 11.638 5.93647C11.6045 5.86385 11.5757 5.79577 11.547 5.72315C11.5374 5.69592 11.5278 5.67323 11.5182 5.64599C11.1205 4.66112 10.6175 3.86233 9.97547 3.20878C9.10349 2.31922 7.93925 1.82451 6.70794 1.82451Z" fill="#C86B8E"/>
</g>
</svg>
