<svg width="24" height="22" viewBox="0 0 24 22" fill="none" xmlns="http://www.w3.org/2000/svg">
<path d="M11.9958 22C11.7796 22 11.5726 21.9144 11.384 21.748C10.8367 21.2583 10.2894 20.7638 9.74203 20.274C8.00803 18.7098 6.20964 17.0979 4.46185 15.4909C3.24759 14.3735 2.2679 13.2228 1.4722 11.9723C0.0831575 9.7947 -0.326194 7.53145 0.257938 5.24444C0.888064 2.772 2.2909 1.13637 4.43885 0.385132C5.16097 0.128378 5.87388 0 6.5592 0C7.95284 0 9.24989 0.527773 10.4182 1.56429C11.0207 2.10158 11.5358 2.75297 12.0004 3.55176C12.0602 3.47094 12.1154 3.38535 12.1705 3.30452C12.4419 2.91939 12.7225 2.51524 13.0306 2.14913C14.0057 1.00324 15.1878 0.313811 16.5354 0.0998488C16.9034 0.0427924 17.2668 0.0142641 17.6163 0.0142641C19.0191 0.0142641 20.284 0.47547 21.3787 1.38361C23.2139 2.90512 24.0924 5.02572 23.9912 7.6836C23.936 9.11477 23.4668 10.5079 22.5561 11.9439C21.4339 13.7079 19.9758 15.1437 18.6926 16.3087C17.2714 17.6067 15.8087 18.9047 14.3967 20.1599C13.8218 20.6687 13.2514 21.1822 12.6765 21.691C12.4649 21.9001 12.2303 22 11.9958 22ZM6.43962 1.91139C5.15177 1.91139 3.90991 2.52475 3.1142 3.55176C1.66077 5.42512 1.44 7.55523 2.45188 9.88978C2.99462 11.145 3.86392 12.1673 4.64123 12.9993C6.20504 14.673 7.94824 16.2041 9.63624 17.6875C10.4182 18.3722 11.2231 19.0806 12.005 19.7986C12.5891 19.2708 13.1824 18.7431 13.7574 18.2247C15.2154 16.9172 16.7286 15.5669 18.1912 14.2166C19.5665 12.947 20.5416 11.7727 21.2591 10.5126C22.1054 9.02918 22.3676 7.49817 22.0318 5.9624C21.6178 4.04625 20.6014 2.77675 19.01 2.18716C18.4994 1.99697 17.9981 1.90189 17.5151 1.90189C16.678 1.90189 15.8731 2.18716 15.1234 2.74346C14.3323 3.33304 13.716 4.16988 13.1824 5.37281C13.118 5.51546 13.0628 5.66285 13.0031 5.81976C12.9571 5.94338 12.9065 6.07651 12.8513 6.20489C12.6949 6.57576 12.4005 6.78021 12.0142 6.78496H12.0096C11.6324 6.78496 11.3334 6.58527 11.1725 6.21916C11.1403 6.14308 11.1127 6.07176 11.0851 5.99568C11.0759 5.96716 11.0667 5.94338 11.0575 5.91485C10.6757 4.88308 10.1928 4.04625 9.57645 3.36158C8.73935 2.42966 7.62168 1.91139 6.43962 1.91139Z" fill="#232323"/>
</svg>
