<svg width="20" height="24" viewBox="0 0 20 24" fill="none" xmlns="http://www.w3.org/2000/svg">
<path d="M4.33913 24C3.2446 24 2.34908 23.7 1.65256 23.2C0.657538 22.6 0.160025 21.6 0.0605221 20.6C-0.138482 18.7 0.160025 16.6 0.856543 14.8C1.15505 13.9 1.85157 12.7 3.0456 12.2C3.84162 11.8 4.63764 11.7 5.23465 11.7C5.43366 11.7 5.73217 11.8 5.93117 11.9C6.32918 12 6.62769 12.2 6.9262 12.4L7.0257 12.5C8.02072 13.1 9.01575 13.4 9.91127 13.4C10.9063 13.4 11.9013 13.1 12.7969 12.5C12.9959 12.4 13.2944 12.2 13.4934 12C13.8914 11.7 14.2894 11.6 14.6874 11.6C14.9859 11.6 15.1849 11.6 15.4834 11.7C16.8765 12 17.8715 12.8 18.568 14.1C19.165 15.2 19.563 16.4 19.6625 18C19.762 18.7 19.762 19.4 19.762 20.2C19.762 21.2 19.364 22.2 18.767 22.9C18.0705 23.6 17.175 24 16.1799 24.1H4.33913V24ZM5.13515 13.1C4.63764 13.1 4.14013 13.2 3.84162 13.5C3.1451 13.9 2.74709 14.6 2.44858 15.3C1.85157 16.7 1.65256 18.3 1.75207 20C1.75207 20.9 2.15008 21.6 3.0456 22C3.54311 22.2 4.04062 22.3 4.43863 22.3C6.22968 22.4 8.12023 22.4 10.0108 22.4H16.2794C17.374 22.3 18.17 21.5 18.369 20.4C18.4685 19.5 18.369 18.6 18.2695 17.6C18.17 16.6 17.8715 15.8 17.374 14.9C16.6775 13.8 15.8814 13.3 14.8864 13.2C14.7869 13.2 14.6874 13.2 14.6874 13.3C14.2894 13.5 13.9909 13.7 13.6924 14C12.5978 14.7 11.6028 15 10.6078 15C10.4088 15 10.3093 15 10.1103 15C8.81674 15 7.42371 14.6 6.22968 13.9L5.33416 13.3C5.23465 13.1 5.13515 13.1 5.13515 13.1Z" fill="#232323"/>
<path d="M9.81169 11.7C6.62761 11.7 3.94104 9.1 3.94104 5.8C3.94104 4.2 4.63756 2.8 5.73209 1.7C6.82661 0.6 8.31915 0 9.91119 0C11.5032 0 12.8963 0.6 13.9908 1.7C15.0853 2.8 15.6823 4.3 15.6823 5.8C15.5828 9.1 12.9958 11.7 9.81169 11.7ZM9.81169 1.6C7.42363 1.6 5.53308 3.5 5.53308 5.9C5.53308 8.3 7.42363 10.2 9.81169 10.2C12.1997 10.2 14.0903 8.3 14.0903 5.9C13.9908 3.5 12.1002 1.6 9.81169 1.6Z" fill="#232323"/>
</svg>
