<svg width="131" height="58" viewBox="0 0 131 58" fill="none" xmlns="http://www.w3.org/2000/svg">
<path d="M17.376 40.512C13.856 40.512 10.784 39.968 8.16 38.88C5.568 37.792 3.552 36.304 2.112 34.416C0.703999 32.496 -1.07288e-06 30.32 -1.07288e-06 27.888C-1.07288e-06 25.904 0.351999 24.096 1.056 22.464C1.76 20.832 2.688 19.472 3.84 18.384C5.024 17.296 6.32 16.576 7.728 16.224C7.952 16.192 8.064 16.272 8.064 16.464C8.064 16.624 7.984 16.752 7.824 16.848C6.16 17.84 4.88 19.264 3.984 21.12C3.12 22.976 2.688 25.04 2.688 27.312C2.688 29.776 3.328 31.904 4.608 33.696C5.888 35.456 7.632 36.8 9.84 37.728C12.08 38.688 14.592 39.168 17.376 39.168C19.776 39.168 22.048 38.736 24.192 37.872C26.368 37.04 28.368 35.888 30.192 34.416C32.016 32.944 33.648 31.28 35.088 29.424C36.56 27.536 37.792 25.568 38.784 23.52C39.008 23.04 39.232 22.576 39.456 22.128C39.68 21.68 39.904 21.232 40.128 20.784C39.36 20.752 38.656 20.72 38.016 20.688C37.408 20.656 36.992 20.64 36.768 20.64C35.904 20.64 34.976 20.704 33.984 20.832C33.024 20.928 32.112 21.136 31.248 21.456C30.416 21.776 29.728 22.272 29.184 22.944C28.96 23.168 28.816 23.344 28.752 23.472C28.72 23.6 28.656 23.664 28.56 23.664C28.432 23.664 28.32 23.568 28.224 23.376C28.128 23.152 28.144 22.912 28.272 22.656C29.008 21.024 30.048 19.92 31.392 19.344C32.736 18.736 34.24 18.432 35.904 18.432C36.256 18.432 36.912 18.496 37.872 18.624C38.864 18.72 39.904 18.832 40.992 18.96C42.4 16.112 43.68 13.536 44.832 11.232C46.016 8.928 47.12 7.008 48.144 5.472C45.84 4.704 43.392 4.032 40.8 3.456C38.208 2.848 35.424 2.544 32.448 2.544C30.24 2.544 28.24 2.848 26.448 3.456C24.656 4.064 23.12 4.88 21.84 5.904C20.592 6.928 19.632 8.064 18.96 9.312C18.288 10.56 17.952 11.808 17.952 13.056C17.952 14.464 18.224 15.584 18.768 16.416C19.312 17.248 20.016 17.856 20.88 18.24C21.776 18.592 22.688 18.768 23.616 18.768C24.992 18.768 26.16 18.432 27.12 17.76C28.112 17.088 28.896 16.336 29.472 15.504C30.048 14.64 30.4 13.936 30.528 13.392C30.656 12.88 30.848 12.624 31.104 12.624C31.488 12.624 31.648 12.848 31.584 13.296C31.392 14.704 30.896 15.92 30.096 16.944C29.296 17.968 28.32 18.752 27.168 19.296C26.016 19.808 24.8 20.064 23.52 20.064C22.208 20.064 20.944 19.744 19.728 19.104C18.512 18.464 17.52 17.536 16.752 16.32C15.984 15.104 15.6 13.632 15.6 11.904C15.6 10.496 15.904 9.104 16.512 7.728C17.152 6.32 18.096 5.04 19.344 3.888C20.624 2.704 22.24 1.76 24.192 1.056C26.144 0.352 28.448 0 31.104 0C32.992 0 34.928 0.224 36.912 0.672C38.896 1.088 40.896 1.632 42.912 2.304C44.96 2.944 46.976 3.616 48.96 4.32C49.632 3.456 50.272 2.8 50.88 2.352C51.488 1.872 52.096 1.632 52.704 1.632C52.96 1.632 53.136 1.696 53.232 1.824C53.328 1.92 53.376 2.016 53.376 2.112C53.376 2.24 53.328 2.384 53.232 2.544C53.136 2.704 52.96 2.784 52.704 2.784C51.648 2.784 50.656 3.376 49.728 4.56C52.032 5.328 54.24 6.016 56.352 6.624C58.496 7.2 60.48 7.488 62.304 7.488C63.712 7.488 64.64 7.344 65.088 7.056C65.536 6.736 65.76 6.304 65.76 5.76C65.76 5.408 65.872 5.232 66.096 5.232C66.256 5.232 66.4 5.344 66.528 5.568C66.688 5.76 66.768 6 66.768 6.288C66.768 7.056 66.336 7.68 65.472 8.16C64.64 8.64 63.472 8.88 61.968 8.88C59.984 8.88 57.92 8.56 55.776 7.92C53.632 7.248 51.36 6.512 48.96 5.712C48.096 7.152 47.248 9.04 46.416 11.376C45.584 13.68 44.608 16.288 43.488 19.2C44.864 19.328 46.32 19.44 47.856 19.536C49.392 19.6 50.64 19.632 51.6 19.632C51.92 19.632 52.08 19.728 52.08 19.92C52.08 20.176 51.712 20.4 50.976 20.592C50.496 20.72 49.68 20.816 48.528 20.88C47.408 20.944 46.24 20.976 45.024 20.976C44.768 20.976 44.448 20.976 44.064 20.976C43.68 20.944 43.264 20.928 42.816 20.928C42.528 21.664 42.224 22.416 41.904 23.184C41.616 23.92 41.296 24.688 40.944 25.488C39.6 28.656 37.952 31.232 36 33.216C34.08 35.168 32.016 36.672 29.808 37.728C27.632 38.816 25.456 39.552 23.28 39.936C21.136 40.32 19.168 40.512 17.376 40.512ZM57.5587 35.808C56.3747 35.808 55.4947 35.456 54.9187 34.752C54.3747 34.016 54.1027 33.152 54.1027 32.16C54.1027 31.136 54.2467 30.08 54.5347 28.992C54.8227 27.904 55.0787 26.992 55.3027 26.256C55.8147 24.464 56.4547 22.56 57.2227 20.544C58.0227 18.496 58.8867 16.496 59.8147 14.544C60.7747 12.56 61.7187 10.784 62.6467 9.216C63.3827 7.968 64.1667 7.04 64.9987 6.432C65.8627 5.792 66.6147 5.472 67.2548 5.472C67.7667 5.472 68.1667 5.664 68.4547 6.048C68.7747 6.4 68.9348 6.944 68.9348 7.68C68.9348 8.192 68.8387 8.8 68.6467 9.504C68.4867 10.208 68.1987 11.008 67.7827 11.904C66.6627 14.4 65.3187 16.896 63.7507 19.392C62.2147 21.888 60.2627 24.224 57.8947 26.4C57.5107 27.296 57.1907 28.256 56.9347 29.28C56.6787 30.304 56.5507 31.136 56.5507 31.776C56.5507 33.76 57.2227 34.752 58.5667 34.752C59.5907 34.752 60.7267 34.016 61.9747 32.544C63.2227 31.04 64.4067 28.992 65.5267 26.4C65.6547 26.4 65.7827 26.432 65.9107 26.496C66.0387 26.528 66.1027 26.64 66.1027 26.832C65.7507 27.696 65.3027 28.656 64.7587 29.712C64.2467 30.736 63.6387 31.712 62.9347 32.64C62.2627 33.568 61.4787 34.336 60.5827 34.944C59.6867 35.52 58.6787 35.808 57.5587 35.808ZM58.2787 24.864C59.4307 23.68 60.5507 22.32 61.6387 20.784C62.7267 19.216 63.7347 17.6 64.6627 15.936C65.6227 14.24 66.4227 12.64 67.0627 11.136C67.2867 10.656 67.4627 10.128 67.5908 9.552C67.7508 8.976 67.8307 8.496 67.8307 8.112C67.8307 7.664 67.7188 7.44 67.4948 7.44C67.3667 7.44 67.1747 7.568 66.9188 7.824C66.6627 8.048 66.3267 8.448 65.9107 9.024C65.3027 9.824 64.6307 10.912 63.8947 12.288C63.1907 13.664 62.4707 15.136 61.7347 16.704C60.9987 18.272 60.3267 19.792 59.7187 21.264C59.1107 22.704 58.6307 23.904 58.2787 24.864ZM68.4015 35.664C67.0895 35.664 66.1135 35.2 65.4735 34.272C64.8655 33.312 64.5615 32.16 64.5615 30.816C64.5615 29.568 64.8015 28.272 65.2815 26.928C65.7935 25.456 66.4975 24.112 67.3935 22.896C68.3215 21.68 69.3295 20.704 70.4175 19.968C71.5375 19.2 72.6415 18.816 73.7295 18.816C75.0415 18.816 76.0015 19.264 76.6095 20.16C77.2495 21.056 77.5695 22.192 77.5695 23.568C77.5695 24.528 77.4095 25.536 77.0895 26.592C76.7695 27.648 76.3375 28.688 75.7935 29.712C76.2095 30.128 76.8015 30.336 77.5695 30.336C78.4655 30.336 79.2335 30.048 79.8735 29.472C80.5135 28.896 81.1375 27.872 81.7455 26.4C82.1295 26.4 82.3215 26.544 82.3215 26.832C81.7135 28.304 81.0095 29.392 80.2095 30.096C79.4415 30.768 78.4495 31.088 77.2335 31.056C76.4975 31.056 75.8895 30.848 75.4095 30.432C74.5135 31.904 73.4415 33.152 72.1935 34.176C70.9775 35.168 69.7135 35.664 68.4015 35.664ZM69.0735 34.608C69.8095 34.608 70.5455 34.304 71.2815 33.696C72.0175 33.056 72.6895 32.336 73.2975 31.536C73.9055 30.736 74.3375 30.048 74.5935 29.472C74.0815 28.544 73.7775 27.856 73.6815 27.408C73.6175 26.928 73.5855 26.576 73.5855 26.352C73.5855 25.744 73.7455 25.28 74.0655 24.96C74.3855 24.64 74.7055 24.48 75.0255 24.48C75.4735 24.48 75.8575 24.672 76.1775 25.056C76.2415 24.704 76.2895 24.384 76.3215 24.096C76.3535 23.776 76.3695 23.472 76.3695 23.184C76.3695 22.352 76.2095 21.68 75.8895 21.168C75.6015 20.624 75.1375 20.352 74.4975 20.352C73.8255 20.352 73.1215 20.64 72.3855 21.216C71.6495 21.792 70.9455 22.56 70.2735 23.52C69.6335 24.48 69.0735 25.552 68.5935 26.736C68.1775 27.728 67.8575 28.672 67.6335 29.568C67.4095 30.432 67.2975 31.232 67.2975 31.968C67.2975 32.768 67.4415 33.408 67.7295 33.888C68.0175 34.368 68.4655 34.608 69.0735 34.608ZM92.3002 35.76C92.1082 35.76 91.9322 35.744 91.7722 35.712C91.6442 35.712 91.4682 35.696 91.2442 35.664C90.4442 35.504 89.8842 35.072 89.5642 34.368C89.2762 33.632 89.1322 32.848 89.1322 32.016C89.1322 31.504 89.1642 31.008 89.2282 30.528C89.3242 30.016 89.4362 29.568 89.5642 29.184C89.2762 29.696 88.9082 30.32 88.4602 31.056C88.0122 31.76 87.5002 32.464 86.9242 33.168C86.3482 33.872 85.7402 34.464 85.1002 34.944C84.4602 35.424 83.8042 35.664 83.1322 35.664C82.4602 35.664 81.8362 35.472 81.2602 35.088C80.6842 34.704 80.3162 34.16 80.1562 33.456C80.1242 33.296 80.0922 33.152 80.0602 33.024C80.0602 32.864 80.0602 32.72 80.0602 32.592C80.0602 31.76 80.2842 30.912 80.7322 30.048C81.1802 29.184 81.7082 28.112 82.3162 26.832C82.1562 26.832 82.0122 26.816 81.8842 26.784C81.7882 26.752 81.7402 26.624 81.7402 26.4C82.4762 24.736 83.1002 23.392 83.6122 22.368C84.1562 21.312 84.5562 20.56 84.8122 20.112C85.2282 19.408 85.8842 19.056 86.7802 19.056H89.7562C89.2122 19.472 88.7162 19.936 88.2682 20.448C87.8522 20.928 87.3242 21.824 86.6842 23.136C86.6842 23.136 86.5722 23.36 86.3482 23.808C86.1242 24.256 85.8362 24.816 85.4842 25.488C85.1642 26.16 84.8282 26.848 84.4762 27.552C84.1562 28.256 83.8842 28.864 83.6602 29.376C83.3402 30.08 83.1002 30.736 82.9402 31.344C82.7802 31.952 82.7002 32.48 82.7002 32.928C82.7002 34.048 83.0682 34.608 83.8042 34.608C84.3162 34.608 84.8922 34.288 85.5322 33.648C86.2682 32.944 87.0202 31.968 87.7882 30.72C88.5882 29.44 89.3562 28.096 90.0922 26.688C90.8282 25.28 91.4842 23.984 92.0602 22.8C92.6363 21.584 93.0683 20.688 93.3563 20.112C93.5163 19.76 93.7242 19.504 93.9802 19.344C94.2682 19.152 94.6682 19.056 95.1802 19.056H98.1082C97.9162 19.248 97.6283 19.456 97.2443 19.68C96.8923 19.904 96.5402 20.304 96.1882 20.88C95.7402 21.648 95.3402 22.368 94.9882 23.04C94.6362 23.68 94.1562 24.656 93.5482 25.968C93.4202 26.256 93.1642 26.816 92.7802 27.648C92.4282 28.48 92.0922 29.392 91.7722 30.384C91.4522 31.376 91.2922 32.272 91.2922 33.072C91.2922 33.584 91.4042 34 91.6282 34.32C91.8522 34.64 92.2202 34.8 92.7322 34.8C93.6282 34.8 94.4762 34.432 95.2762 33.696C96.1082 32.96 96.8442 32.064 97.4843 31.008C98.1562 29.952 98.7003 28.928 99.1163 27.936C99.0842 27.68 99.0362 27.312 98.9722 26.832C98.9402 26.32 98.9243 25.888 98.9243 25.536C98.9243 23.456 99.2442 21.696 99.8842 20.256C100.556 18.784 101.436 18.048 102.524 18.048C103.132 18.048 103.436 18.32 103.436 18.864C103.436 18.96 103.324 19.344 103.1 20.016C102.908 20.656 102.636 21.456 102.284 22.416C101.964 23.376 101.596 24.384 101.18 25.44C100.764 26.496 100.348 27.488 99.9323 28.416C100.028 28.96 100.252 29.408 100.604 29.76C100.956 30.112 101.404 30.288 101.948 30.288C102.588 30.288 103.18 30 103.724 29.424C104.3 28.816 104.892 27.808 105.5 26.4C105.884 26.4 106.076 26.544 106.076 26.832C105.564 28.112 104.94 29.136 104.204 29.904C103.5 30.672 102.7 31.056 101.804 31.056C100.716 31.056 99.9323 30.496 99.4523 29.376C98.5883 31.104 97.5482 32.608 96.3322 33.888C95.1482 35.136 93.8042 35.76 92.3002 35.76ZM108.962 35.856C107.778 35.856 106.706 35.472 105.746 34.704C104.818 33.936 104.354 32.768 104.354 31.2C104.354 29.888 104.642 28.496 105.218 27.024C105.826 25.552 106.61 24.176 107.57 22.896C108.562 21.584 109.65 20.528 110.834 19.728C112.05 18.896 113.266 18.48 114.482 18.48C115.09 18.48 115.682 18.656 116.258 19.008C116.834 19.36 117.122 19.968 117.122 20.832C117.122 21.632 116.818 22.512 116.21 23.472C115.602 24.432 114.738 25.328 113.618 26.16C113.138 26.512 112.53 26.848 111.794 27.168C111.058 27.488 110.322 27.76 109.586 27.984C108.85 28.176 108.242 28.272 107.762 28.272C107.602 28.656 107.442 29.168 107.282 29.808C107.154 30.448 107.09 31.104 107.09 31.776C107.09 32.576 107.25 33.296 107.57 33.936C107.89 34.576 108.482 34.896 109.346 34.896C110.402 34.896 111.378 34.592 112.274 33.984C113.202 33.376 114.018 32.608 114.722 31.68C115.458 30.752 116.082 29.808 116.594 28.848C117.106 27.888 117.506 27.072 117.794 26.4C118.178 26.4 118.37 26.544 118.37 26.832C117.954 27.728 117.474 28.704 116.93 29.76C116.418 30.816 115.794 31.808 115.058 32.736C114.354 33.632 113.49 34.384 112.466 34.992C111.474 35.568 110.306 35.856 108.962 35.856ZM108.098 27.408C108.546 27.408 109.298 27.248 110.354 26.928C111.41 26.576 112.37 26.032 113.234 25.296C114.066 24.56 114.706 23.76 115.154 22.896C115.602 22 115.826 21.248 115.826 20.64C115.826 19.936 115.57 19.584 115.058 19.584C114.674 19.584 114.146 19.84 113.474 20.352C112.802 20.864 111.97 21.728 110.978 22.944C110.37 23.712 109.794 24.544 109.25 25.44C108.706 26.336 108.322 26.992 108.098 27.408ZM117.835 26.256C118.091 25.712 118.427 24.848 118.843 23.664C119.259 22.448 119.691 21.104 120.139 19.632C120.587 18.16 120.923 16.768 121.147 15.456C121.243 14.944 121.419 14.576 121.675 14.352C121.931 14.096 122.203 13.968 122.491 13.968C122.907 13.968 123.291 14.176 123.643 14.592C123.995 14.976 124.171 15.536 124.171 16.272C124.171 17.168 123.899 17.936 123.355 18.576C122.843 19.216 122.203 19.824 121.435 20.4C121.755 20.432 122.091 20.464 122.443 20.496C122.795 20.496 123.179 20.496 123.595 20.496C125.099 20.496 126.587 20.4 128.059 20.208C128.123 20.4 128.155 20.544 128.155 20.64C128.155 21.056 128.027 21.584 127.771 22.224C127.547 22.864 127.307 23.44 127.051 23.952C126.923 24.24 126.667 24.768 126.283 25.536C125.899 26.272 125.483 27.12 125.035 28.08C124.587 29.008 124.203 29.936 123.883 30.864C123.595 31.76 123.451 32.528 123.451 33.168C123.451 34 123.771 34.416 124.411 34.416C125.019 34.416 125.867 33.712 126.955 32.304C128.043 30.864 129.131 28.896 130.219 26.4C130.603 26.4 130.795 26.544 130.795 26.832C130.443 27.696 129.995 28.64 129.451 29.664C128.939 30.688 128.363 31.664 127.723 32.592C127.083 33.488 126.395 34.24 125.659 34.848C124.923 35.424 124.155 35.712 123.355 35.712C122.747 35.712 122.139 35.472 121.531 34.992C120.923 34.48 120.619 33.664 120.619 32.544C120.619 31.552 120.811 30.592 121.195 29.664C121.579 28.704 122.011 27.808 122.491 26.976C122.971 26.144 123.403 25.408 123.787 24.768C124.171 24.128 124.363 23.616 124.363 23.232C124.363 22.656 123.995 22.24 123.259 21.984C122.555 21.728 121.627 21.584 120.475 21.552C119.899 23.024 119.467 24.112 119.179 24.816C118.891 25.52 118.619 26.192 118.363 26.832C117.851 26.832 117.675 26.64 117.835 26.256Z" fill="#C86B8E"/>
<path d="M59.2421 54.664V45.9367H60.5162V49.1796H60.5929C60.6668 49.0433 60.7733 48.8856 60.9125 48.7066C61.0517 48.5276 61.2449 48.3714 61.4921 48.2379C61.7392 48.1015 62.0659 48.0333 62.4722 48.0333C63.0006 48.0333 63.4722 48.1668 63.8869 48.4339C64.3017 48.7009 64.627 49.0859 64.8628 49.5887C65.1014 50.0916 65.2207 50.6967 65.2207 51.4041C65.2207 52.1114 65.1029 52.718 64.8671 53.2237C64.6313 53.7265 64.3074 54.1143 63.8955 54.387C63.4835 54.6569 63.0134 54.7918 62.485 54.7918C62.0872 54.7918 61.7619 54.7251 61.5091 54.5916C61.2591 54.458 61.0631 54.3018 60.921 54.1228C60.779 53.9438 60.6696 53.7847 60.5929 53.6455H60.4864V54.664H59.2421ZM60.4906 51.3913C60.4906 51.8515 60.5574 52.2549 60.6909 52.6015C60.8244 52.9481 61.0176 53.2194 61.2705 53.4154C61.5233 53.6086 61.833 53.7052 62.1994 53.7052C62.5801 53.7052 62.8983 53.6043 63.154 53.4026C63.4097 53.1981 63.6029 52.9211 63.7335 52.5717C63.8671 52.2222 63.9338 51.8288 63.9338 51.3913C63.9338 50.9595 63.8685 50.5717 63.7378 50.2279C63.61 49.8842 63.4168 49.6129 63.1582 49.414C62.9026 49.2151 62.583 49.1157 62.1994 49.1157C61.8301 49.1157 61.5176 49.2109 61.2619 49.4012C61.0091 49.5916 60.8173 49.8572 60.6867 50.1981C60.556 50.539 60.4906 50.9367 60.4906 51.3913ZM69.4086 54.7961C68.795 54.7961 68.2595 54.6555 67.8021 54.3742C67.3447 54.093 66.9896 53.6995 66.7367 53.1938C66.4839 52.6881 66.3575 52.0972 66.3575 51.4211C66.3575 50.7421 66.4839 50.1484 66.7367 49.6399C66.9896 49.1313 67.3447 48.7364 67.8021 48.4552C68.2595 48.1739 68.795 48.0333 69.4086 48.0333C70.0222 48.0333 70.5578 48.1739 71.0151 48.4552C71.4725 48.7364 71.8276 49.1313 72.0805 49.6399C72.3333 50.1484 72.4597 50.7421 72.4597 51.4211C72.4597 52.0972 72.3333 52.6881 72.0805 53.1938C71.8276 53.6995 71.4725 54.093 71.0151 54.3742C70.5578 54.6555 70.0222 54.7961 69.4086 54.7961ZM69.4129 53.7265C69.8106 53.7265 70.1401 53.6214 70.4015 53.4112C70.6629 53.2009 70.856 52.9211 70.981 52.5717C71.1089 52.2222 71.1728 51.8373 71.1728 51.4168C71.1728 50.9992 71.1089 50.6157 70.981 50.2663C70.856 49.914 70.6629 49.6313 70.4015 49.4183C70.1401 49.2052 69.8106 49.0987 69.4129 49.0987C69.0123 49.0987 68.6799 49.2052 68.4157 49.4183C68.1543 49.6313 67.9597 49.914 67.8319 50.2663C67.7069 50.6157 67.6444 50.9992 67.6444 51.4168C67.6444 51.8373 67.7069 52.2222 67.8319 52.5717C67.9597 52.9211 68.1543 53.2009 68.4157 53.4112C68.6799 53.6214 69.0123 53.7265 69.4129 53.7265ZM78.0283 51.9495V48.1185H79.3067V54.664H78.0538V53.5305H77.9857C77.8351 53.8799 77.5936 54.1711 77.2612 54.4041C76.9317 54.6342 76.5212 54.7492 76.0297 54.7492C75.6092 54.7492 75.2371 54.6569 74.9132 54.4722C74.5922 54.2847 74.3394 54.0078 74.1547 53.6413C73.9729 53.2748 73.882 52.8217 73.882 52.2819V48.1185H75.1561V52.1285C75.1561 52.5745 75.2797 52.9296 75.5269 53.1938C75.774 53.458 76.095 53.5901 76.4899 53.5901C76.7286 53.5901 76.9658 53.5305 77.2016 53.4112C77.4402 53.2918 77.6377 53.1114 77.7939 52.87C77.953 52.6285 78.0311 52.3217 78.0283 51.9495ZM84.0741 48.1185V49.1413H80.4988V48.1185H84.0741ZM81.4576 46.5504H82.7318V52.7421C82.7318 52.9893 82.7687 53.1754 82.8426 53.3004C82.9164 53.4225 83.0116 53.5063 83.1281 53.5518C83.2474 53.5944 83.3766 53.6157 83.5158 53.6157C83.6181 53.6157 83.7076 53.6086 83.7843 53.5944C83.861 53.5802 83.9207 53.5688 83.9633 53.5603L84.1934 54.6129C84.1195 54.6413 84.0144 54.6697 83.8781 54.6981C83.7417 54.7293 83.5712 54.7464 83.3667 54.7492C83.0315 54.7549 82.719 54.6953 82.4292 54.5703C82.1394 54.4453 81.9051 54.2521 81.7261 53.9907C81.5471 53.7293 81.4576 53.4012 81.4576 53.0063V46.5504ZM85.4835 54.664V48.1185H86.7577V54.664H85.4835ZM86.127 47.1086C85.9054 47.1086 85.7151 47.0347 85.556 46.887C85.3997 46.7364 85.3216 46.5575 85.3216 46.3501C85.3216 46.1399 85.3997 45.9609 85.556 45.8131C85.7151 45.6626 85.9054 45.5873 86.127 45.5873C86.3486 45.5873 86.5375 45.6626 86.6938 45.8131C86.8529 45.9609 86.9324 46.1399 86.9324 46.3501C86.9324 46.5575 86.8529 46.7364 86.6938 46.887C86.5375 47.0347 86.3486 47.1086 86.127 47.1086ZM92.8908 57.1185V53.6455H92.8141C92.7374 53.7847 92.6266 53.9438 92.4818 54.1228C92.3397 54.3018 92.1437 54.458 91.8937 54.5916C91.6437 54.7251 91.3198 54.7918 90.9221 54.7918C90.3937 54.7918 89.9221 54.6569 89.5073 54.387C89.0954 54.1143 88.7715 53.7265 88.5357 53.2237C88.3028 52.718 88.1863 52.1114 88.1863 51.4041C88.1863 50.6967 88.3042 50.0916 88.54 49.5887C88.7786 49.0859 89.1053 48.7009 89.5201 48.4339C89.9349 48.1668 90.4051 48.0333 90.9306 48.0333C91.3369 48.0333 91.6636 48.1015 91.9107 48.2379C92.1607 48.3714 92.3539 48.5276 92.4903 48.7066C92.6295 48.8856 92.7374 49.0433 92.8141 49.1796H92.9207V48.1185H94.165V57.1185H92.8908ZM91.2033 53.7052C91.5698 53.7052 91.8795 53.6086 92.1323 53.4154C92.388 53.2194 92.5812 52.9481 92.7119 52.6015C92.8454 52.2549 92.9122 51.8515 92.9122 51.3913C92.9122 50.9367 92.8468 50.539 92.7161 50.1981C92.5855 49.8572 92.3937 49.5916 92.1408 49.4012C91.888 49.2109 91.5755 49.1157 91.2033 49.1157C90.8198 49.1157 90.5002 49.2151 90.2445 49.414C89.9889 49.6129 89.7957 49.8842 89.665 50.2279C89.5372 50.5717 89.4732 50.9595 89.4732 51.3913C89.4732 51.8288 89.5386 52.2222 89.6693 52.5717C89.7999 52.9211 89.9931 53.1981 90.2488 53.4026C90.5073 53.6043 90.8255 53.7052 91.2033 53.7052ZM100.024 51.9495V48.1185H101.303V54.664H100.05V53.5305H99.9818C99.8312 53.8799 99.5897 54.1711 99.2573 54.4041C98.9278 54.6342 98.5173 54.7492 98.0258 54.7492C97.6053 54.7492 97.2332 54.6569 96.9093 54.4722C96.5883 54.2847 96.3355 54.0078 96.1508 53.6413C95.969 53.2748 95.8781 52.8217 95.8781 52.2819V48.1185H97.1522V52.1285C97.1522 52.5745 97.2758 52.9296 97.523 53.1938C97.7701 53.458 98.0911 53.5901 98.486 53.5901C98.7247 53.5901 98.9619 53.5305 99.1977 53.4112C99.4363 53.2918 99.6337 53.1114 99.79 52.87C99.9491 52.6285 100.027 52.3217 100.024 51.9495ZM105.836 54.7961C105.191 54.7961 104.636 54.6583 104.17 54.3828C103.707 54.1043 103.349 53.7137 103.096 53.2109C102.846 52.7052 102.721 52.1129 102.721 51.4339C102.721 50.7634 102.846 50.1725 103.096 49.6612C103.349 49.1498 103.701 48.7506 104.153 48.4637C104.607 48.1768 105.138 48.0333 105.746 48.0333C106.116 48.0333 106.474 48.0944 106.82 48.2166C107.167 48.3387 107.478 48.5305 107.753 48.7918C108.029 49.0532 108.246 49.3927 108.405 49.8103C108.564 50.2251 108.644 50.7293 108.644 51.3231V51.7748H103.441V50.8203H107.395C107.395 50.485 107.327 50.1881 107.191 49.9296C107.055 49.6683 106.863 49.4623 106.616 49.3117C106.371 49.1612 106.084 49.0859 105.755 49.0859C105.397 49.0859 105.084 49.1739 104.817 49.3501C104.553 49.5234 104.349 49.7506 104.204 50.0319C104.062 50.3103 103.991 50.6129 103.991 50.9396V51.6853C103.991 52.1228 104.067 52.495 104.221 52.8018C104.377 53.1086 104.594 53.343 104.873 53.5049C105.151 53.664 105.476 53.7435 105.849 53.7435C106.09 53.7435 106.31 53.7095 106.509 53.6413C106.708 53.5703 106.88 53.4651 107.025 53.3259C107.17 53.1867 107.28 53.0149 107.357 52.8103L108.563 53.0276C108.466 53.3828 108.293 53.6938 108.043 53.9609C107.796 54.2251 107.485 54.431 107.11 54.5788C106.738 54.7237 106.313 54.7961 105.836 54.7961Z" fill="#4A4A4A"/>
</svg>
