<svg width="197" height="85" viewBox="0 0 197 85" fill="none" xmlns="http://www.w3.org/2000/svg">
<path d="M26.064 60.7681C20.784 60.7681 16.176 59.9521 12.24 58.3201C8.35201 56.6881 5.32801 54.4561 3.16801 51.6241C1.05601 48.7441 6.02007e-06 45.4801 6.02007e-06 41.8321C6.02007e-06 38.8561 0.528006 36.1441 1.58401 33.6961C2.64001 31.2481 4.03201 29.2081 5.76001 27.5761C7.53601 25.9441 9.48001 24.8641 11.592 24.3361C11.928 24.2881 12.096 24.4081 12.096 24.6961C12.096 24.9361 11.976 25.1281 11.736 25.2721C9.24001 26.7601 7.32001 28.8961 5.97601 31.6801C4.68001 34.4641 4.03201 37.5601 4.03201 40.9681C4.03201 44.6641 4.99201 47.8561 6.91201 50.5441C8.83201 53.1841 11.448 55.2001 14.76 56.5921C18.12 58.0321 21.888 58.7521 26.064 58.7521C29.664 58.7521 33.072 58.1041 36.288 56.8081C39.552 55.5601 42.552 53.8321 45.288 51.6241C48.024 49.4161 50.472 46.9201 52.632 44.1361C54.84 41.3041 56.688 38.3521 58.176 35.2801C58.512 34.5601 58.848 33.8641 59.184 33.1921C59.52 32.5201 59.856 31.8481 60.192 31.1761C59.04 31.1281 57.984 31.0801 57.024 31.0321C56.112 30.9841 55.488 30.9601 55.152 30.9601C53.856 30.9601 52.464 31.0561 50.976 31.2481C49.536 31.3921 48.168 31.7041 46.872 32.1841C45.624 32.6641 44.592 33.4081 43.776 34.4161C43.44 34.7521 43.224 35.0161 43.128 35.2081C43.08 35.4001 42.984 35.4961 42.84 35.4961C42.648 35.4961 42.48 35.3521 42.336 35.0641C42.192 34.7281 42.216 34.3681 42.408 33.9841C43.512 31.5361 45.072 29.8801 47.088 29.0161C49.104 28.1041 51.36 27.6481 53.856 27.6481C54.384 27.6481 55.368 27.7441 56.808 27.9361C58.296 28.0801 59.856 28.2481 61.488 28.4401C63.6 24.1681 65.52 20.3041 67.248 16.8481C69.024 13.3921 70.68 10.5121 72.216 8.20809C68.76 7.05609 65.088 6.04809 61.2 5.18409C57.312 4.27209 53.136 3.81609 48.672 3.81609C45.36 3.81609 42.36 4.27209 39.672 5.18409C36.984 6.09609 34.68 7.32009 32.76 8.85609C30.888 10.3921 29.448 12.0961 28.44 13.9681C27.432 15.8401 26.928 17.7121 26.928 19.5841C26.928 21.6961 27.336 23.3761 28.152 24.6241C28.968 25.8721 30.024 26.7841 31.32 27.3601C32.664 27.8881 34.032 28.1521 35.424 28.1521C37.488 28.1521 39.24 27.6481 40.68 26.6401C42.168 25.6321 43.344 24.5041 44.208 23.2561C45.072 21.9601 45.6 20.9041 45.792 20.0881C45.984 19.3201 46.272 18.9361 46.656 18.9361C47.232 18.9361 47.472 19.2721 47.376 19.9441C47.088 22.0561 46.344 23.8801 45.144 25.4161C43.944 26.9521 42.48 28.1281 40.752 28.9441C39.024 29.7121 37.2 30.0961 35.28 30.0961C33.312 30.0961 31.416 29.6161 29.592 28.6561C27.768 27.6961 26.28 26.3041 25.128 24.4801C23.976 22.6561 23.4 20.4481 23.4 17.8561C23.4 15.7441 23.856 13.6561 24.768 11.5921C25.728 9.48009 27.144 7.56009 29.016 5.83209C30.936 4.05609 33.36 2.64009 36.288 1.58409C39.216 0.528092 42.672 9.15527e-05 46.656 9.15527e-05C49.488 9.15527e-05 52.392 0.336092 55.368 1.00809C58.344 1.63209 61.344 2.44809 64.368 3.45609C67.44 4.41609 70.464 5.42409 73.44 6.48009C74.448 5.18409 75.408 4.20009 76.32 3.52809C77.232 2.80809 78.144 2.44809 79.056 2.44809C79.44 2.44809 79.704 2.54409 79.848 2.73609C79.992 2.88009 80.064 3.02409 80.064 3.16809C80.064 3.36009 79.992 3.57609 79.848 3.81609C79.704 4.05609 79.44 4.17609 79.056 4.17609C77.472 4.17609 75.984 5.06409 74.592 6.84009C78.048 7.99209 81.36 9.02409 84.528 9.93609C87.744 10.8001 90.72 11.2321 93.456 11.2321C95.568 11.2321 96.96 11.0161 97.632 10.5841C98.304 10.1041 98.64 9.45609 98.64 8.64009C98.64 8.11209 98.808 7.84809 99.144 7.84809C99.384 7.84809 99.6 8.01609 99.792 8.35209C100.032 8.64009 100.152 9.00009 100.152 9.43209C100.152 10.5841 99.504 11.5201 98.208 12.2401C96.96 12.9601 95.208 13.3201 92.952 13.3201C89.976 13.3201 86.88 12.8401 83.664 11.8801C80.448 10.8721 77.04 9.76809 73.44 8.56809C72.144 10.7281 70.872 13.5601 69.624 17.0641C68.376 20.5201 66.912 24.4321 65.232 28.8001C67.296 28.9921 69.48 29.1601 71.784 29.3041C74.088 29.4001 75.96 29.4481 77.4 29.4481C77.88 29.4481 78.12 29.5921 78.12 29.8801C78.12 30.2641 77.568 30.6001 76.464 30.8881C75.744 31.0801 74.52 31.2241 72.792 31.3201C71.112 31.4161 69.36 31.4641 67.536 31.4641C67.152 31.4641 66.672 31.4641 66.096 31.4641C65.52 31.4161 64.896 31.3921 64.224 31.3921C63.792 32.4961 63.336 33.6241 62.856 34.7761C62.424 35.8801 61.944 37.0321 61.416 38.2321C59.4 42.9841 56.928 46.8481 54 49.8241C51.12 52.7521 48.024 55.0081 44.712 56.5921C41.448 58.2241 38.184 59.3281 34.92 59.9041C31.704 60.4801 28.752 60.7681 26.064 60.7681ZM86.3381 53.7121C84.5621 53.7121 83.2421 53.1841 82.3781 52.1281C81.5621 51.0241 81.1541 49.7281 81.1541 48.2401C81.1541 46.7041 81.3701 45.1201 81.8021 43.4881C82.2341 41.8561 82.6181 40.4881 82.9541 39.3841C83.7221 36.6961 84.6821 33.8401 85.8341 30.8161C87.0341 27.7441 88.3301 24.7441 89.7221 21.8161C91.1621 18.8401 92.5781 16.1761 93.9701 13.8241C95.0741 11.9521 96.2501 10.5601 97.4981 9.64809C98.7941 8.68809 99.9221 8.20809 100.882 8.20809C101.65 8.20809 102.25 8.49609 102.682 9.07209C103.162 9.60009 103.402 10.4161 103.402 11.5201C103.402 12.2881 103.258 13.2001 102.97 14.2561C102.73 15.3121 102.298 16.5121 101.674 17.8561C99.9941 21.6001 97.9781 25.3441 95.6261 29.0881C93.3221 32.8321 90.3941 36.3361 86.8421 39.6001C86.2661 40.9441 85.7861 42.3841 85.4021 43.9201C85.0181 45.4561 84.8261 46.7041 84.8261 47.6641C84.8261 50.6401 85.8341 52.1281 87.8501 52.1281C89.3861 52.1281 91.0901 51.0241 92.9621 48.8161C94.8341 46.5601 96.6101 43.4881 98.2901 39.6001C98.4821 39.6001 98.6741 39.6481 98.8661 39.7441C99.0581 39.7921 99.1541 39.9601 99.1541 40.2481C98.6261 41.5441 97.9541 42.9841 97.1381 44.5681C96.3701 46.1041 95.4581 47.5681 94.4021 48.9601C93.3941 50.3521 92.2181 51.5041 90.8741 52.4161C89.5301 53.2801 88.0181 53.7121 86.3381 53.7121ZM87.4181 37.2961C89.1461 35.5201 90.8261 33.4801 92.4581 31.1761C94.0901 28.8241 95.6021 26.4001 96.9941 23.9041C98.4341 21.3601 99.6341 18.9601 100.594 16.7041C100.93 15.9841 101.194 15.1921 101.386 14.3281C101.626 13.4641 101.746 12.7441 101.746 12.1681C101.746 11.4961 101.578 11.1601 101.242 11.1601C101.05 11.1601 100.762 11.3521 100.378 11.7361C99.9941 12.0721 99.4901 12.6721 98.8661 13.5361C97.9541 14.7361 96.9461 16.3681 95.8421 18.4321C94.7861 20.4961 93.7061 22.7041 92.6021 25.0561C91.4981 27.4081 90.4901 29.6881 89.5781 31.8961C88.6661 34.0561 87.9461 35.8561 87.4181 37.2961ZM102.602 53.4961C100.634 53.4961 99.1703 52.8001 98.2103 51.4081C97.2983 49.9681 96.8423 48.2401 96.8423 46.2241C96.8423 44.3521 97.2023 42.4081 97.9223 40.3921C98.6903 38.1841 99.7463 36.1681 101.09 34.3441C102.482 32.5201 103.994 31.0561 105.626 29.9521C107.306 28.8001 108.962 28.2241 110.594 28.2241C112.562 28.2241 114.002 28.8961 114.914 30.2401C115.874 31.5841 116.354 33.2881 116.354 35.3521C116.354 36.7921 116.114 38.3041 115.634 39.8881C115.154 41.4721 114.506 43.0321 113.69 44.5681C114.314 45.1921 115.202 45.5041 116.354 45.5041C117.698 45.5041 118.85 45.0721 119.81 44.2081C120.77 43.3441 121.706 41.8081 122.618 39.6001C123.194 39.6001 123.482 39.8161 123.482 40.2481C122.57 42.4561 121.514 44.0881 120.314 45.1441C119.162 46.1521 117.674 46.6321 115.85 46.5841C114.746 46.5841 113.834 46.2721 113.114 45.6481C111.77 47.8561 110.162 49.7281 108.29 51.2641C106.466 52.7521 104.57 53.4961 102.602 53.4961ZM103.61 51.9121C104.714 51.9121 105.818 51.4561 106.922 50.5441C108.026 49.5841 109.034 48.5041 109.946 47.3041C110.858 46.1041 111.506 45.0721 111.89 44.2081C111.122 42.8161 110.666 41.7841 110.522 41.1121C110.426 40.3921 110.378 39.8641 110.378 39.5281C110.378 38.6161 110.618 37.9201 111.098 37.4401C111.578 36.9601 112.058 36.7201 112.538 36.7201C113.21 36.7201 113.786 37.0081 114.266 37.5841C114.362 37.0561 114.434 36.5761 114.482 36.1441C114.53 35.6641 114.554 35.2081 114.554 34.7761C114.554 33.5281 114.314 32.5201 113.834 31.7521C113.402 30.9361 112.706 30.5281 111.746 30.5281C110.738 30.5281 109.682 30.9601 108.578 31.8241C107.474 32.6881 106.418 33.8401 105.41 35.2801C104.45 36.7201 103.61 38.3281 102.89 40.1041C102.266 41.5921 101.786 43.0081 101.45 44.3521C101.114 45.6481 100.946 46.8481 100.946 47.9521C100.946 49.1521 101.162 50.1121 101.594 50.8321C102.026 51.5521 102.698 51.9121 103.61 51.9121ZM138.45 53.6401C138.162 53.6401 137.898 53.6161 137.658 53.5681C137.466 53.5681 137.202 53.5441 136.866 53.4961C135.666 53.2561 134.826 52.6081 134.346 51.5521C133.914 50.4481 133.698 49.2721 133.698 48.0241C133.698 47.2561 133.746 46.5121 133.842 45.7921C133.986 45.0241 134.154 44.3521 134.346 43.7761C133.914 44.5441 133.362 45.4801 132.69 46.5841C132.018 47.6401 131.25 48.6961 130.386 49.7521C129.522 50.8081 128.61 51.6961 127.65 52.4161C126.69 53.1361 125.706 53.4961 124.698 53.4961C123.69 53.4961 122.754 53.2081 121.89 52.6321C121.026 52.0561 120.474 51.2401 120.234 50.1841C120.186 49.9441 120.138 49.7281 120.09 49.5361C120.09 49.2961 120.09 49.0801 120.09 48.8881C120.09 47.6401 120.426 46.3681 121.098 45.0721C121.77 43.7761 122.562 42.1681 123.474 40.2481C123.234 40.2481 123.018 40.2241 122.826 40.1761C122.682 40.1281 122.61 39.9361 122.61 39.6001C123.714 37.1041 124.65 35.0881 125.418 33.5521C126.234 31.9681 126.834 30.8401 127.218 30.1681C127.842 29.1121 128.826 28.5841 130.17 28.5841H134.634C133.818 29.2081 133.074 29.9041 132.402 30.6721C131.778 31.3921 130.986 32.7361 130.026 34.7041C130.026 34.7041 129.858 35.0401 129.522 35.7121C129.186 36.3841 128.754 37.2241 128.226 38.2321C127.746 39.2401 127.242 40.2721 126.714 41.3281C126.234 42.3841 125.826 43.2961 125.49 44.0641C125.01 45.1201 124.65 46.1041 124.41 47.0161C124.17 47.9281 124.05 48.7201 124.05 49.3921C124.05 51.0721 124.602 51.9121 125.706 51.9121C126.474 51.9121 127.338 51.4321 128.298 50.4721C129.402 49.4161 130.53 47.9521 131.682 46.0801C132.882 44.1601 134.034 42.1441 135.138 40.0321C136.242 37.9201 137.226 35.9761 138.09 34.2001C138.954 32.3761 139.602 31.0321 140.034 30.1681C140.274 29.6401 140.586 29.2561 140.97 29.0161C141.402 28.7281 142.002 28.5841 142.77 28.5841H147.162C146.874 28.8721 146.442 29.1841 145.866 29.5201C145.338 29.8561 144.81 30.4561 144.282 31.3201C143.61 32.4721 143.01 33.5521 142.482 34.5601C141.954 35.5201 141.234 36.9841 140.322 38.9521C140.13 39.3841 139.746 40.2241 139.17 41.4721C138.642 42.7201 138.138 44.0881 137.658 45.5761C137.178 47.0641 136.938 48.4081 136.938 49.6081C136.938 50.3761 137.106 51.0001 137.442 51.4801C137.778 51.9601 138.33 52.2001 139.098 52.2001C140.442 52.2001 141.714 51.6481 142.914 50.5441C144.162 49.4401 145.266 48.0961 146.226 46.5121C147.234 44.9281 148.05 43.3921 148.674 41.9041C148.626 41.5201 148.554 40.9681 148.458 40.2481C148.41 39.4801 148.386 38.8321 148.386 38.3041C148.386 35.1841 148.866 32.5441 149.826 30.3841C150.834 28.1761 152.154 27.0721 153.786 27.0721C154.698 27.0721 155.154 27.4801 155.154 28.2961C155.154 28.4401 154.986 29.0161 154.65 30.0241C154.362 30.9841 153.954 32.1841 153.426 33.6241C152.946 35.0641 152.394 36.5761 151.77 38.1601C151.146 39.7441 150.522 41.2321 149.898 42.6241C150.042 43.4401 150.378 44.1121 150.906 44.6401C151.434 45.1681 152.106 45.4321 152.922 45.4321C153.882 45.4321 154.77 45.0001 155.586 44.1361C156.45 43.2241 157.338 41.7121 158.25 39.6001C158.826 39.6001 159.114 39.8161 159.114 40.2481C158.346 42.1681 157.41 43.7041 156.306 44.8561C155.25 46.0081 154.05 46.5841 152.706 46.5841C151.074 46.5841 149.898 45.7441 149.178 44.0641C147.882 46.6561 146.322 48.9121 144.498 50.8321C142.722 52.7041 140.706 53.6401 138.45 53.6401ZM163.443 53.7841C161.667 53.7841 160.059 53.2081 158.619 52.0561C157.227 50.9041 156.531 49.1521 156.531 46.8001C156.531 44.8321 156.963 42.7441 157.827 40.5361C158.739 38.3281 159.915 36.2641 161.355 34.3441C162.843 32.3761 164.475 30.7921 166.251 29.5921C168.075 28.3441 169.899 27.7201 171.723 27.7201C172.635 27.7201 173.523 27.9841 174.387 28.5121C175.251 29.0401 175.683 29.9521 175.683 31.2481C175.683 32.4481 175.227 33.7681 174.315 35.2081C173.403 36.6481 172.107 37.9921 170.427 39.2401C169.707 39.7681 168.795 40.2721 167.691 40.7521C166.587 41.2321 165.483 41.6401 164.379 41.9761C163.275 42.2641 162.363 42.4081 161.643 42.4081C161.403 42.9841 161.163 43.7521 160.923 44.7121C160.731 45.6721 160.635 46.6561 160.635 47.6641C160.635 48.8641 160.875 49.9441 161.355 50.9041C161.835 51.8641 162.723 52.3441 164.019 52.3441C165.603 52.3441 167.067 51.8881 168.411 50.9761C169.803 50.0641 171.027 48.9121 172.083 47.5201C173.187 46.1281 174.123 44.7121 174.891 43.2721C175.659 41.8321 176.259 40.6081 176.691 39.6001C177.267 39.6001 177.555 39.8161 177.555 40.2481C176.931 41.5921 176.211 43.0561 175.395 44.6401C174.627 46.2241 173.691 47.7121 172.587 49.1041C171.531 50.4481 170.235 51.5761 168.699 52.4881C167.211 53.3521 165.459 53.7841 163.443 53.7841ZM162.147 41.1121C162.819 41.1121 163.947 40.8721 165.531 40.3921C167.115 39.8641 168.555 39.0481 169.851 37.9441C171.099 36.8401 172.059 35.6401 172.731 34.3441C173.403 33.0001 173.739 31.8721 173.739 30.9601C173.739 29.9041 173.355 29.3761 172.587 29.3761C172.011 29.3761 171.219 29.7601 170.211 30.5281C169.203 31.2961 167.955 32.5921 166.467 34.4161C165.555 35.5681 164.691 36.8161 163.875 38.1601C163.059 39.5041 162.483 40.4881 162.147 41.1121ZM176.753 39.3841C177.137 38.5681 177.641 37.2721 178.265 35.4961C178.889 33.6721 179.537 31.6561 180.209 29.4481C180.881 27.2401 181.385 25.1521 181.721 23.1841C181.865 22.4161 182.129 21.8641 182.513 21.5281C182.897 21.1441 183.305 20.9521 183.737 20.9521C184.361 20.9521 184.937 21.2641 185.465 21.8881C185.993 22.4641 186.257 23.3041 186.257 24.4081C186.257 25.7521 185.849 26.9041 185.033 27.8641C184.265 28.8241 183.305 29.7361 182.153 30.6001C182.633 30.6481 183.137 30.6961 183.665 30.7441C184.193 30.7441 184.769 30.7441 185.393 30.7441C187.649 30.7441 189.881 30.6001 192.089 30.3121C192.185 30.6001 192.233 30.8161 192.233 30.9601C192.233 31.5841 192.041 32.3761 191.657 33.3361C191.321 34.2961 190.961 35.1601 190.577 35.9281C190.385 36.3601 190.001 37.1521 189.425 38.3041C188.849 39.4081 188.225 40.6801 187.553 42.1201C186.881 43.5121 186.305 44.9041 185.825 46.2961C185.393 47.6401 185.177 48.7921 185.177 49.7521C185.177 51.0001 185.657 51.6241 186.617 51.6241C187.529 51.6241 188.801 50.5681 190.433 48.4561C192.065 46.2961 193.697 43.3441 195.329 39.6001C195.905 39.6001 196.193 39.8161 196.193 40.2481C195.665 41.5441 194.993 42.9601 194.177 44.4961C193.409 46.0321 192.545 47.4961 191.585 48.8881C190.625 50.2321 189.593 51.3601 188.489 52.2721C187.385 53.1361 186.233 53.5681 185.033 53.5681C184.121 53.5681 183.209 53.2081 182.297 52.4881C181.385 51.7201 180.929 50.4961 180.929 48.8161C180.929 47.3281 181.217 45.8881 181.793 44.4961C182.369 43.0561 183.017 41.7121 183.737 40.4641C184.457 39.2161 185.105 38.1121 185.681 37.1521C186.257 36.1921 186.545 35.4241 186.545 34.8481C186.545 33.9841 185.993 33.3601 184.889 32.9761C183.833 32.5921 182.441 32.3761 180.713 32.3281C179.849 34.5361 179.201 36.1681 178.769 37.2241C178.337 38.2801 177.929 39.2881 177.545 40.2481C176.777 40.2481 176.513 39.9601 176.753 39.3841Z" fill="#C86B8E"/>
<path d="M71.3233 80.4961V64.4961H73.6593V70.4414H73.7999C73.9353 70.1914 74.1306 69.9023 74.3858 69.5742C74.641 69.2461 74.9952 68.9596 75.4483 68.7148C75.9014 68.4648 76.5004 68.3398 77.2452 68.3398C78.2139 68.3398 79.0785 68.5846 79.8389 69.0742C80.5994 69.5638 81.1957 70.2695 81.628 71.1914C82.0655 72.1133 82.2843 73.2227 82.2843 74.5195C82.2843 75.8164 82.0681 76.9284 81.6358 77.8555C81.2035 78.7773 80.6098 79.4883 79.8546 79.9883C79.0994 80.4831 78.2374 80.7305 77.2686 80.7305C76.5395 80.7305 75.9431 80.6081 75.4796 80.3633C75.0212 80.1185 74.6619 79.832 74.4014 79.5039C74.141 79.1758 73.9405 78.8841 73.7999 78.6289H73.6046V80.4961H71.3233ZM73.6124 74.4961C73.6124 75.3398 73.7348 76.0794 73.9796 76.7148C74.2244 77.3503 74.5785 77.8477 75.0421 78.207C75.5056 78.5612 76.0733 78.7383 76.7452 78.7383C77.4431 78.7383 78.0264 78.5534 78.4952 78.1836C78.9639 77.8086 79.3181 77.3008 79.5577 76.6602C79.8025 76.0195 79.9249 75.2982 79.9249 74.4961C79.9249 73.7044 79.8051 72.9935 79.5655 72.3633C79.3311 71.7331 78.977 71.2357 78.503 70.8711C78.0343 70.5065 77.4483 70.3242 76.7452 70.3242C76.0681 70.3242 75.4952 70.4987 75.0264 70.8477C74.5629 71.1966 74.2113 71.6836 73.9718 72.3086C73.7322 72.9336 73.6124 73.6628 73.6124 74.4961ZM89.962 80.7383C88.837 80.7383 87.8552 80.4805 87.0167 79.9648C86.1781 79.4492 85.5271 78.7279 85.0636 77.8008C84.6 76.8737 84.3682 75.7904 84.3682 74.5508C84.3682 73.306 84.6 72.2174 85.0636 71.2852C85.5271 70.3529 86.1781 69.6289 87.0167 69.1133C87.8552 68.5977 88.837 68.3398 89.962 68.3398C91.087 68.3398 92.0688 68.5977 92.9073 69.1133C93.7458 69.6289 94.3969 70.3529 94.8604 71.2852C95.324 72.2174 95.5557 73.306 95.5557 74.5508C95.5557 75.7904 95.324 76.8737 94.8604 77.8008C94.3969 78.7279 93.7458 79.4492 92.9073 79.9648C92.0688 80.4805 91.087 80.7383 89.962 80.7383ZM89.9698 78.7773C90.699 78.7773 91.3031 78.5846 91.7823 78.1992C92.2615 77.8138 92.6156 77.3008 92.8448 76.6602C93.0792 76.0195 93.1964 75.3138 93.1964 74.543C93.1964 73.7773 93.0792 73.0742 92.8448 72.4336C92.6156 71.7878 92.2615 71.2695 91.7823 70.8789C91.3031 70.4883 90.699 70.293 89.9698 70.293C89.2354 70.293 88.6261 70.4883 88.1417 70.8789C87.6625 71.2695 87.3057 71.7878 87.0714 72.4336C86.8422 73.0742 86.7276 73.7773 86.7276 74.543C86.7276 75.3138 86.8422 76.0195 87.0714 76.6602C87.3057 77.3008 87.6625 77.8138 88.1417 78.1992C88.6261 78.5846 89.2354 78.7773 89.9698 78.7773ZM105.765 75.5195V68.4961H108.108V80.4961H105.812V78.418H105.687C105.411 79.0586 104.968 79.5924 104.358 80.0195C103.754 80.4414 103.002 80.6523 102.101 80.6523C101.33 80.6523 100.648 80.4831 100.054 80.1445C99.4652 79.8008 99.0017 79.293 98.6632 78.6211C98.3298 77.9492 98.1632 77.1185 98.1632 76.1289V68.4961H100.499V75.8477C100.499 76.6654 100.726 77.3164 101.179 77.8008C101.632 78.2852 102.22 78.5273 102.944 78.5273C103.382 78.5273 103.817 78.418 104.249 78.1992C104.687 77.9805 105.049 77.6497 105.335 77.207C105.627 76.7643 105.77 76.2018 105.765 75.5195ZM116.849 68.4961V70.3711H110.294V68.4961H116.849ZM112.052 65.6211H114.388V76.9727C114.388 77.4258 114.455 77.7669 114.591 77.9961C114.726 78.2201 114.901 78.3737 115.114 78.457C115.333 78.5352 115.57 78.5742 115.825 78.5742C116.013 78.5742 116.177 78.5612 116.317 78.5352C116.458 78.5091 116.567 78.4883 116.646 78.4727L117.067 80.4023C116.932 80.4544 116.739 80.5065 116.489 80.5586C116.239 80.6159 115.927 80.6471 115.552 80.6523C114.937 80.6628 114.364 80.5534 113.833 80.3242C113.302 80.0951 112.872 79.7409 112.544 79.2617C112.216 78.7826 112.052 78.181 112.052 77.457V65.6211ZM119.433 80.4961V68.4961H121.769V80.4961H119.433ZM120.612 66.6445C120.206 66.6445 119.857 66.5091 119.566 66.2383C119.279 65.9622 119.136 65.6341 119.136 65.2539C119.136 64.8685 119.279 64.5404 119.566 64.2695C119.857 63.9935 120.206 63.8555 120.612 63.8555C121.019 63.8555 121.365 63.9935 121.651 64.2695C121.943 64.5404 122.089 64.8685 122.089 65.2539C122.089 65.6341 121.943 65.9622 121.651 66.2383C121.365 66.5091 121.019 66.6445 120.612 66.6445ZM133.013 84.9961V78.6289H132.872C132.732 78.8841 132.528 79.1758 132.263 79.5039C132.002 79.832 131.643 80.1185 131.185 80.3633C130.726 80.6081 130.133 80.7305 129.403 80.7305C128.435 80.7305 127.57 80.4831 126.81 79.9883C126.054 79.4883 125.461 78.7773 125.028 77.8555C124.601 76.9284 124.388 75.8164 124.388 74.5195C124.388 73.2227 124.604 72.1133 125.036 71.1914C125.474 70.2695 126.073 69.5638 126.833 69.0742C127.594 68.5846 128.455 68.3398 129.419 68.3398C130.164 68.3398 130.763 68.4648 131.216 68.7148C131.674 68.9596 132.028 69.2461 132.278 69.5742C132.534 69.9023 132.732 70.1914 132.872 70.4414H133.067V68.4961H135.349V84.9961H133.013ZM129.919 78.7383C130.591 78.7383 131.159 78.5612 131.622 78.207C132.091 77.8477 132.445 77.3503 132.685 76.7148C132.929 76.0794 133.052 75.3398 133.052 74.4961C133.052 73.6628 132.932 72.9336 132.692 72.3086C132.453 71.6836 132.101 71.1966 131.638 70.8477C131.174 70.4987 130.601 70.3242 129.919 70.3242C129.216 70.3242 128.63 70.5065 128.161 70.8711C127.692 71.2357 127.338 71.7331 127.099 72.3633C126.864 72.9935 126.747 73.7044 126.747 74.4961C126.747 75.2982 126.867 76.0195 127.107 76.6602C127.346 77.3008 127.7 77.8086 128.169 78.1836C128.643 78.5534 129.226 78.7383 129.919 78.7383ZM146.091 75.5195V68.4961H148.435V80.4961H146.138V78.418H146.013C145.737 79.0586 145.294 79.5924 144.685 80.0195C144.08 80.4414 143.328 80.6523 142.427 80.6523C141.656 80.6523 140.974 80.4831 140.38 80.1445C139.791 79.8008 139.328 79.293 138.989 78.6211C138.656 77.9492 138.489 77.1185 138.489 76.1289V68.4961H140.825V75.8477C140.825 76.6654 141.052 77.3164 141.505 77.8008C141.958 78.2852 142.547 78.5273 143.271 78.5273C143.708 78.5273 144.143 78.418 144.575 78.1992C145.013 77.9805 145.375 77.6497 145.661 77.207C145.953 76.7643 146.096 76.2018 146.091 75.5195ZM156.745 80.7383C155.563 80.7383 154.545 80.4857 153.691 79.9805C152.842 79.4701 152.185 78.7539 151.722 77.832C151.263 76.9049 151.034 75.819 151.034 74.5742C151.034 73.3451 151.263 72.2617 151.722 71.3242C152.185 70.3867 152.831 69.6549 153.659 69.1289C154.493 68.6029 155.467 68.3398 156.581 68.3398C157.258 68.3398 157.914 68.4518 158.55 68.6758C159.185 68.8997 159.756 69.2513 160.261 69.7305C160.766 70.2096 161.164 70.832 161.456 71.5977C161.748 72.3581 161.894 73.2826 161.894 74.3711V75.1992H152.355V73.4492H159.605C159.605 72.8346 159.48 72.2904 159.23 71.8164C158.98 71.3372 158.628 70.9596 158.175 70.6836C157.727 70.4076 157.201 70.2695 156.597 70.2695C155.941 70.2695 155.368 70.431 154.878 70.7539C154.394 71.0716 154.019 71.4883 153.753 72.0039C153.493 72.5143 153.362 73.069 153.362 73.668V75.0352C153.362 75.8372 153.503 76.5195 153.784 77.082C154.071 77.6445 154.469 78.0742 154.98 78.3711C155.49 78.6628 156.086 78.8086 156.769 78.8086C157.211 78.8086 157.615 78.7461 157.98 78.6211C158.344 78.4909 158.659 78.2982 158.925 78.043C159.191 77.7878 159.394 77.4727 159.534 77.0977L161.745 77.4961C161.568 78.1471 161.25 78.7174 160.792 79.207C160.339 79.6914 159.769 80.069 159.081 80.3398C158.399 80.6055 157.62 80.7383 156.745 80.7383Z" fill="#4A4A4A"/>
</svg>
