<svg width="104" height="50" viewBox="0 0 104 50" fill="none" xmlns="http://www.w3.org/2000/svg">
<path d="M13.7562 32.072C10.9695 32.072 8.53754 31.6413 6.46021 30.78C4.40821 29.9187 2.81221 28.7407 1.67221 27.246C0.55754 25.726 0.000207052 24.0033 0.000207052 22.078C0.000207052 20.5073 0.278874 19.076 0.836207 17.784C1.39354 16.492 2.12821 15.4153 3.04021 14.554C3.97754 13.6927 5.00354 13.1227 6.11821 12.844C6.29554 12.8187 6.38421 12.882 6.38421 13.034C6.38421 13.1607 6.32087 13.262 6.19421 13.338C4.87687 14.1233 3.86354 15.2507 3.15421 16.72C2.47021 18.1893 2.12821 19.8233 2.12821 21.622C2.12821 23.5727 2.63487 25.2573 3.64821 26.676C4.66154 28.0693 6.04221 29.1333 7.79021 29.868C9.56354 30.628 11.5522 31.008 13.7562 31.008C15.6562 31.008 17.4549 30.666 19.1522 29.982C20.8749 29.3233 22.4582 28.4113 23.9022 27.246C25.3462 26.0807 26.6382 24.7633 27.7782 23.294C28.9435 21.7993 29.9189 20.2413 30.7042 18.62C30.8815 18.24 31.0589 17.8727 31.2362 17.518C31.4135 17.1633 31.5909 16.8087 31.7682 16.454C31.1602 16.4287 30.6029 16.4033 30.0962 16.378C29.6149 16.3527 29.2855 16.34 29.1082 16.34C28.4242 16.34 27.6895 16.3907 26.9042 16.492C26.1442 16.568 25.4222 16.7327 24.7382 16.986C24.0795 17.2393 23.5349 17.632 23.1042 18.164C22.9269 18.3413 22.8129 18.4807 22.7622 18.582C22.7369 18.6833 22.6862 18.734 22.6102 18.734C22.5089 18.734 22.4202 18.658 22.3442 18.506C22.2682 18.3287 22.2809 18.1387 22.3822 17.936C22.9649 16.644 23.7882 15.77 24.8522 15.314C25.9162 14.8327 27.1069 14.592 28.4242 14.592C28.7029 14.592 29.2222 14.6427 29.9822 14.744C30.7675 14.82 31.5909 14.9087 32.4522 15.01C33.5669 12.7553 34.5802 10.716 35.4922 8.892C36.4295 7.068 37.3035 5.548 38.1142 4.332C36.2902 3.724 34.3522 3.192 32.3002 2.736C30.2482 2.25467 28.0442 2.014 25.6882 2.014C23.9402 2.014 22.3569 2.25467 20.9382 2.736C19.5195 3.21733 18.3035 3.86333 17.2902 4.674C16.3022 5.48467 15.5422 6.384 15.0102 7.372C14.4782 8.36 14.2122 9.348 14.2122 10.336C14.2122 11.4507 14.4275 12.3373 14.8582 12.996C15.2889 13.6547 15.8462 14.136 16.5302 14.44C17.2395 14.7187 17.9615 14.858 18.6962 14.858C19.7855 14.858 20.7102 14.592 21.4702 14.06C22.2555 13.528 22.8762 12.9327 23.3322 12.274C23.7882 11.59 24.0669 11.0327 24.1682 10.602C24.2695 10.1967 24.4215 9.994 24.6242 9.994C24.9282 9.994 25.0549 10.1713 25.0042 10.526C24.8522 11.6407 24.4595 12.6033 23.8262 13.414C23.1929 14.2247 22.4202 14.8453 21.5082 15.276C20.5962 15.6813 19.6335 15.884 18.6202 15.884C17.5815 15.884 16.5809 15.6307 15.6182 15.124C14.6555 14.6173 13.8702 13.8827 13.2622 12.92C12.6542 11.9573 12.3502 10.792 12.3502 9.424C12.3502 8.30933 12.5909 7.20733 13.0722 6.118C13.5789 5.00333 14.3262 3.99 15.3142 3.078C16.3275 2.14067 17.6069 1.39333 19.1522 0.836001C20.6975 0.278667 22.5215 0 24.6242 0C26.1189 0 27.6515 0.177333 29.2222 0.532C30.7929 0.861334 32.3762 1.292 33.9722 1.824C35.5935 2.33067 37.1895 2.86267 38.7602 3.42C39.2922 2.736 39.7989 2.21667 40.2802 1.862C40.7615 1.482 41.2429 1.292 41.7242 1.292C41.9269 1.292 42.0662 1.34267 42.1422 1.444C42.2182 1.52 42.2562 1.596 42.2562 1.672C42.2562 1.77333 42.2182 1.88733 42.1422 2.014C42.0662 2.14067 41.9269 2.204 41.7242 2.204C40.8882 2.204 40.1029 2.67267 39.3682 3.61C41.1922 4.218 42.9402 4.76267 44.6122 5.244C46.3095 5.7 47.8802 5.928 49.3242 5.928C50.4389 5.928 51.1735 5.814 51.5282 5.586C51.8829 5.33267 52.0602 4.99067 52.0602 4.56C52.0602 4.28133 52.1489 4.142 52.3262 4.142C52.4529 4.142 52.5669 4.23067 52.6682 4.408C52.7949 4.56 52.8582 4.75 52.8582 4.978C52.8582 5.586 52.5162 6.08 51.8322 6.46C51.1735 6.84 50.2489 7.03 49.0582 7.03C47.4875 7.03 45.8535 6.77667 44.1562 6.27C42.4589 5.738 40.6602 5.15533 38.7602 4.522C38.0762 5.662 37.4049 7.15667 36.7462 9.006C36.0875 10.83 35.3149 12.8947 34.4282 15.2C35.5175 15.3013 36.6702 15.39 37.8862 15.466C39.1022 15.5167 40.0902 15.542 40.8502 15.542C41.1035 15.542 41.2302 15.618 41.2302 15.77C41.2302 15.9727 40.9389 16.15 40.3562 16.302C39.9762 16.4033 39.3302 16.4793 38.4182 16.53C37.5315 16.5807 36.6069 16.606 35.6442 16.606C35.4415 16.606 35.1882 16.606 34.8842 16.606C34.5802 16.5807 34.2509 16.568 33.8962 16.568C33.6682 17.1507 33.4275 17.746 33.1742 18.354C32.9462 18.9367 32.6929 19.5447 32.4142 20.178C31.3502 22.686 30.0455 24.7253 28.5002 26.296C26.9802 27.8413 25.3462 29.032 23.5982 29.868C21.8755 30.7293 20.1529 31.312 18.4302 31.616C16.7329 31.92 15.1749 32.072 13.7562 32.072ZM45.5676 28.348C44.6302 28.348 43.9336 28.0693 43.4776 27.512C43.0469 26.9293 42.8316 26.2453 42.8316 25.46C42.8316 24.6493 42.9456 23.8133 43.1736 22.952C43.4016 22.0907 43.6042 21.3687 43.7816 20.786C44.1869 19.3673 44.6936 17.86 45.3016 16.264C45.9349 14.6427 46.6189 13.0593 47.3536 11.514C48.1136 9.94333 48.8609 8.53733 49.5956 7.296C50.1782 6.308 50.7989 5.57333 51.4576 5.092C52.1416 4.58533 52.7369 4.332 53.2436 4.332C53.6489 4.332 53.9656 4.484 54.1936 4.788C54.4469 5.06667 54.5736 5.49733 54.5736 6.08C54.5736 6.48533 54.4976 6.96667 54.3456 7.524C54.2189 8.08133 53.9909 8.71467 53.6616 9.424C52.7749 11.4 51.7109 13.376 50.4696 15.352C49.2536 17.328 47.7082 19.1773 45.8336 20.9C45.5296 21.6093 45.2762 22.3693 45.0736 23.18C44.8709 23.9907 44.7696 24.6493 44.7696 25.156C44.7696 26.7267 45.3016 27.512 46.3656 27.512C47.1762 27.512 48.0756 26.9293 49.0636 25.764C50.0516 24.5733 50.9889 22.952 51.8756 20.9C51.9769 20.9 52.0782 20.9253 52.1796 20.976C52.2809 21.0013 52.3316 21.09 52.3316 21.242C52.0529 21.926 51.6982 22.686 51.2676 23.522C50.8622 24.3327 50.3809 25.1053 49.8236 25.84C49.2916 26.5747 48.6709 27.1827 47.9616 27.664C47.2522 28.12 46.4542 28.348 45.5676 28.348ZM46.1376 19.684C47.0496 18.7467 47.9362 17.67 48.7976 16.454C49.6589 15.2127 50.4569 13.9333 51.1916 12.616C51.9516 11.2733 52.5849 10.0067 53.0916 8.816C53.2689 8.436 53.4082 8.018 53.5096 7.562C53.6362 7.106 53.6996 6.726 53.6996 6.422C53.6996 6.06733 53.6109 5.89 53.4336 5.89C53.3322 5.89 53.1802 5.99133 52.9776 6.194C52.7749 6.37133 52.5089 6.688 52.1796 7.144C51.6982 7.77733 51.1662 8.63867 50.5836 9.728C50.0262 10.8173 49.4562 11.9827 48.8736 13.224C48.2909 14.4653 47.7589 15.6687 47.2776 16.834C46.7962 17.974 46.4162 18.924 46.1376 19.684ZM54.1514 28.234C53.1127 28.234 52.3401 27.8667 51.8334 27.132C51.3521 26.372 51.1114 25.46 51.1114 24.396C51.1114 23.408 51.3014 22.382 51.6814 21.318C52.0867 20.1527 52.6441 19.0887 53.3534 18.126C54.0881 17.1633 54.8861 16.3907 55.7474 15.808C56.6341 15.2 57.5081 14.896 58.3694 14.896C59.4081 14.896 60.1681 15.2507 60.6494 15.96C61.1561 16.6693 61.4094 17.5687 61.4094 18.658C61.4094 19.418 61.2827 20.216 61.0294 21.052C60.7761 21.888 60.4341 22.7113 60.0034 23.522C60.3327 23.8513 60.8014 24.016 61.4094 24.016C62.1187 24.016 62.7267 23.788 63.2334 23.332C63.7401 22.876 64.2341 22.0653 64.7154 20.9C65.0194 20.9 65.1714 21.014 65.1714 21.242C64.6901 22.4073 64.1327 23.2687 63.4994 23.826C62.8914 24.358 62.1061 24.6113 61.1434 24.586C60.5607 24.586 60.0794 24.4213 59.6994 24.092C58.9901 25.2573 58.1414 26.2453 57.1534 27.056C56.1907 27.8413 55.1901 28.234 54.1514 28.234ZM54.6834 27.398C55.2661 27.398 55.8487 27.1573 56.4314 26.676C57.0141 26.1693 57.5461 25.5993 58.0274 24.966C58.5087 24.3327 58.8507 23.788 59.0534 23.332C58.6481 22.5973 58.4074 22.0527 58.3314 21.698C58.2807 21.318 58.2554 21.0393 58.2554 20.862C58.2554 20.3807 58.3821 20.0133 58.6354 19.76C58.8887 19.5067 59.1421 19.38 59.3954 19.38C59.7501 19.38 60.0541 19.532 60.3074 19.836C60.3581 19.5573 60.3961 19.304 60.4214 19.076C60.4467 18.8227 60.4594 18.582 60.4594 18.354C60.4594 17.6953 60.3327 17.1633 60.0794 16.758C59.8514 16.3273 59.4841 16.112 58.9774 16.112C58.4454 16.112 57.8881 16.34 57.3054 16.796C56.7227 17.252 56.1654 17.86 55.6334 18.62C55.1267 19.38 54.6834 20.2287 54.3034 21.166C53.9741 21.9513 53.7207 22.6987 53.5434 23.408C53.3661 24.092 53.2774 24.7253 53.2774 25.308C53.2774 25.9413 53.3914 26.448 53.6194 26.828C53.8474 27.208 54.2021 27.398 54.6834 27.398ZM73.0712 28.31C72.9192 28.31 72.7799 28.2973 72.6532 28.272C72.5519 28.272 72.4126 28.2593 72.2352 28.234C71.6019 28.1073 71.1586 27.7653 70.9052 27.208C70.6772 26.6253 70.5632 26.0047 70.5632 25.346C70.5632 24.9407 70.5886 24.548 70.6392 24.168C70.7152 23.7627 70.8039 23.408 70.9052 23.104C70.6772 23.5093 70.3859 24.0033 70.0312 24.586C69.6766 25.1433 69.2712 25.7007 68.8152 26.258C68.3592 26.8153 67.8779 27.284 67.3712 27.664C66.8646 28.044 66.3452 28.234 65.8132 28.234C65.2812 28.234 64.7872 28.082 64.3312 27.778C63.8752 27.474 63.5839 27.0433 63.4572 26.486C63.4319 26.3593 63.4066 26.2453 63.3812 26.144C63.3812 26.0173 63.3812 25.9033 63.3812 25.802C63.3812 25.1433 63.5586 24.472 63.9132 23.788C64.2679 23.104 64.6859 22.2553 65.1672 21.242C65.0406 21.242 64.9266 21.2293 64.8252 21.204C64.7492 21.1787 64.7112 21.0773 64.7112 20.9C65.2939 19.5827 65.7879 18.5187 66.1932 17.708C66.6239 16.872 66.9406 16.2767 67.1432 15.922C67.4726 15.3647 67.9919 15.086 68.7012 15.086H71.0572C70.6266 15.4153 70.2339 15.7827 69.8792 16.188C69.5499 16.568 69.1319 17.2773 68.6252 18.316C68.6252 18.316 68.5366 18.4933 68.3592 18.848C68.1819 19.2027 67.9539 19.646 67.6752 20.178C67.4219 20.71 67.1559 21.2547 66.8772 21.812C66.6239 22.3693 66.4086 22.8507 66.2312 23.256C65.9779 23.8133 65.7879 24.3327 65.6612 24.814C65.5346 25.2953 65.4712 25.7133 65.4712 26.068C65.4712 26.9547 65.7626 27.398 66.3452 27.398C66.7506 27.398 67.2066 27.1447 67.7132 26.638C68.2959 26.0807 68.8912 25.308 69.4992 24.32C70.1326 23.3067 70.7406 22.2427 71.3232 21.128C71.9059 20.0133 72.4252 18.9873 72.8812 18.05C73.3372 17.0873 73.6792 16.378 73.9072 15.922C74.0339 15.6433 74.1986 15.4407 74.4012 15.314C74.6292 15.162 74.9459 15.086 75.3512 15.086H77.6692C77.5172 15.238 77.2892 15.4027 76.9852 15.58C76.7066 15.7573 76.4279 16.074 76.1492 16.53C75.7946 17.138 75.4779 17.708 75.1992 18.24C74.9206 18.7467 74.5406 19.5193 74.0592 20.558C73.9579 20.786 73.7552 21.2293 73.4512 21.888C73.1726 22.5467 72.9066 23.2687 72.6532 24.054C72.3999 24.8393 72.2732 25.5487 72.2732 26.182C72.2732 26.5873 72.3619 26.9167 72.5392 27.17C72.7166 27.4233 73.0079 27.55 73.4132 27.55C74.1226 27.55 74.7939 27.2587 75.4272 26.676C76.0859 26.0933 76.6686 25.384 77.1752 24.548C77.7072 23.712 78.1379 22.9013 78.4672 22.116C78.4419 21.9133 78.4039 21.622 78.3532 21.242C78.3279 20.8367 78.3152 20.4947 78.3152 20.216C78.3152 18.5693 78.5686 17.176 79.0752 16.036C79.6072 14.8707 80.3039 14.288 81.1652 14.288C81.6466 14.288 81.8872 14.5033 81.8872 14.934C81.8872 15.01 81.7986 15.314 81.6212 15.846C81.4692 16.3527 81.2539 16.986 80.9752 17.746C80.7219 18.506 80.4306 19.304 80.1012 20.14C79.7719 20.976 79.4426 21.7613 79.1132 22.496C79.1892 22.9267 79.3666 23.2813 79.6452 23.56C79.9239 23.8387 80.2786 23.978 80.7092 23.978C81.2159 23.978 81.6846 23.75 82.1152 23.294C82.5712 22.8127 83.0399 22.0147 83.5212 20.9C83.8252 20.9 83.9772 21.014 83.9772 21.242C83.5719 22.2553 83.0779 23.066 82.4952 23.674C81.9379 24.282 81.3046 24.586 80.5952 24.586C79.7339 24.586 79.1132 24.1427 78.7332 23.256C78.0492 24.624 77.2259 25.8147 76.2632 26.828C75.3259 27.816 74.2619 28.31 73.0712 28.31ZM86.2617 28.386C85.3244 28.386 84.4757 28.082 83.7157 27.474C82.981 26.866 82.6137 25.9413 82.6137 24.7C82.6137 23.6613 82.8417 22.5593 83.2977 21.394C83.779 20.2287 84.3997 19.1393 85.1597 18.126C85.945 17.0873 86.8064 16.2513 87.7437 15.618C88.7064 14.9593 89.669 14.63 90.6317 14.63C91.113 14.63 91.5817 14.7693 92.0377 15.048C92.4937 15.3267 92.7217 15.808 92.7217 16.492C92.7217 17.1253 92.481 17.822 91.9997 18.582C91.5184 19.342 90.8344 20.0513 89.9477 20.71C89.5677 20.9887 89.0864 21.2547 88.5037 21.508C87.921 21.7613 87.3384 21.9767 86.7557 22.154C86.173 22.306 85.6917 22.382 85.3117 22.382C85.185 22.686 85.0584 23.0913 84.9317 23.598C84.8304 24.1047 84.7797 24.624 84.7797 25.156C84.7797 25.7893 84.9064 26.3593 85.1597 26.866C85.413 27.3727 85.8817 27.626 86.5657 27.626C87.4017 27.626 88.1744 27.3853 88.8837 26.904C89.6184 26.4227 90.2644 25.8147 90.8217 25.08C91.4044 24.3453 91.8984 23.598 92.3037 22.838C92.709 22.078 93.0257 21.432 93.2537 20.9C93.5577 20.9 93.7097 21.014 93.7097 21.242C93.3804 21.9513 93.0004 22.724 92.5697 23.56C92.1644 24.396 91.6704 25.1813 91.0877 25.916C90.5304 26.6253 89.8464 27.2207 89.0357 27.702C88.2504 28.158 87.3257 28.386 86.2617 28.386ZM85.5777 21.698C85.9324 21.698 86.5277 21.5713 87.3637 21.318C88.1997 21.0393 88.9597 20.6087 89.6437 20.026C90.3024 19.4433 90.809 18.81 91.1637 18.126C91.5184 17.4167 91.6957 16.8213 91.6957 16.34C91.6957 15.7827 91.493 15.504 91.0877 15.504C90.7837 15.504 90.3657 15.7067 89.8337 16.112C89.3017 16.5173 88.643 17.2013 87.8577 18.164C87.3764 18.772 86.9204 19.4307 86.4897 20.14C86.059 20.8493 85.755 21.3687 85.5777 21.698ZM93.2863 20.786C93.489 20.3553 93.755 19.6713 94.0843 18.734C94.4137 17.7713 94.7557 16.7073 95.1103 15.542C95.465 14.3767 95.731 13.2747 95.9083 12.236C95.9843 11.8307 96.1237 11.5393 96.3263 11.362C96.529 11.1593 96.7443 11.058 96.9723 11.058C97.3017 11.058 97.6057 11.2227 97.8843 11.552C98.163 11.856 98.3023 12.2993 98.3023 12.882C98.3023 13.5913 98.087 14.1993 97.6563 14.706C97.251 15.2127 96.7443 15.694 96.1363 16.15C96.3897 16.1753 96.6557 16.2007 96.9343 16.226C97.213 16.226 97.517 16.226 97.8463 16.226C99.037 16.226 100.215 16.15 101.38 15.998C101.431 16.15 101.456 16.264 101.456 16.34C101.456 16.6693 101.355 17.0873 101.152 17.594C100.975 18.1007 100.785 18.5567 100.582 18.962C100.481 19.19 100.278 19.608 99.9743 20.216C99.6703 20.7987 99.341 21.47 98.9863 22.23C98.6317 22.9647 98.3277 23.6993 98.0743 24.434C97.8463 25.1433 97.7323 25.7513 97.7323 26.258C97.7323 26.9167 97.9857 27.246 98.4923 27.246C98.9737 27.246 99.645 26.6887 100.506 25.574C101.368 24.434 102.229 22.876 103.09 20.9C103.394 20.9 103.546 21.014 103.546 21.242C103.268 21.926 102.913 22.6733 102.482 23.484C102.077 24.2947 101.621 25.0673 101.114 25.802C100.608 26.5113 100.063 27.1067 99.4803 27.588C98.8977 28.044 98.2897 28.272 97.6563 28.272C97.175 28.272 96.6937 28.082 96.2123 27.702C95.731 27.2967 95.4903 26.6507 95.4903 25.764C95.4903 24.9787 95.6423 24.2187 95.9463 23.484C96.2503 22.724 96.5923 22.0147 96.9723 21.356C97.3523 20.6973 97.6943 20.1147 97.9983 19.608C98.3023 19.1013 98.4543 18.696 98.4543 18.392C98.4543 17.936 98.163 17.6067 97.5803 17.404C97.023 17.2013 96.2883 17.0873 95.3763 17.062C94.9203 18.2273 94.5783 19.0887 94.3503 19.646C94.1223 20.2033 93.907 20.7353 93.7043 21.242C93.299 21.242 93.1597 21.09 93.2863 20.786Z" fill="#C86B8E"/>
<path d="M59.3425 47.234V39.9613H60.4043V42.6637H60.4682C60.5297 42.5501 60.6185 42.4187 60.7345 42.2695C60.8505 42.1204 61.0115 41.9902 61.2175 41.8789C61.4234 41.7653 61.6957 41.7084 62.0342 41.7084C62.4746 41.7084 62.8676 41.8197 63.2132 42.0422C63.5588 42.2648 63.8299 42.5856 64.0264 43.0046C64.2253 43.4236 64.3247 43.9279 64.3247 44.5174C64.3247 45.1069 64.2265 45.6123 64.03 46.0337C63.8335 46.4528 63.5636 46.7759 63.2203 47.0032C62.877 47.2281 62.4852 47.3405 62.0449 47.3405C61.7134 47.3405 61.4424 47.2849 61.2317 47.1736C61.0233 47.0624 60.86 46.9322 60.7416 46.783C60.6232 46.6339 60.5321 46.5013 60.4682 46.3853H60.3794V47.234H59.3425ZM60.3829 44.5067C60.3829 44.8903 60.4386 45.2264 60.5498 45.5153C60.6611 45.8041 60.8221 46.0302 61.0328 46.1935C61.2435 46.3545 61.5016 46.435 61.807 46.435C62.1242 46.435 62.3893 46.351 62.6024 46.1829C62.8155 46.0124 62.9765 45.7816 63.0854 45.4904C63.1966 45.1992 63.2523 44.8713 63.2523 44.5067C63.2523 44.1469 63.1978 43.8237 63.0889 43.5373C62.9824 43.2508 62.8214 43.0247 62.606 42.859C62.3929 42.6933 62.1266 42.6104 61.807 42.6104C61.4992 42.6104 61.2388 42.6897 61.0257 42.8483C60.815 43.007 60.6552 43.2283 60.5463 43.5124C60.4374 43.7965 60.3829 44.1279 60.3829 44.5067ZM67.8146 47.3441C67.3032 47.3441 66.857 47.2269 66.4758 46.9925C66.0947 46.7581 65.7987 46.4303 65.588 46.0089C65.3773 45.5875 65.272 45.095 65.272 44.5316C65.272 43.9658 65.3773 43.471 65.588 43.0472C65.7987 42.6234 66.0947 42.2944 66.4758 42.06C66.857 41.8256 67.3032 41.7084 67.8146 41.7084C68.3259 41.7084 68.7722 41.8256 69.1534 42.06C69.5345 42.2944 69.8304 42.6234 70.0411 43.0472C70.2518 43.471 70.3572 43.9658 70.3572 44.5316C70.3572 45.095 70.2518 45.5875 70.0411 46.0089C69.8304 46.4303 69.5345 46.7581 69.1534 46.9925C68.7722 47.2269 68.3259 47.3441 67.8146 47.3441ZM67.8181 46.4528C68.1496 46.4528 68.4242 46.3652 68.642 46.19C68.8598 46.0148 69.0208 45.7816 69.125 45.4904C69.2315 45.1992 69.2848 44.8784 69.2848 44.528C69.2848 44.18 69.2315 43.8604 69.125 43.5692C69.0208 43.2757 68.8598 43.0401 68.642 42.8626C68.4242 42.685 68.1496 42.5962 67.8181 42.5962C67.4843 42.5962 67.2073 42.685 66.9872 42.8626C66.7694 43.0401 66.6072 43.2757 66.5007 43.5692C66.3965 43.8604 66.3444 44.18 66.3444 44.528C66.3444 44.8784 66.3965 45.1992 66.5007 45.4904C66.6072 45.7816 66.7694 46.0148 66.9872 46.19C67.2073 46.3652 67.4843 46.4528 67.8181 46.4528ZM74.9976 44.9719V41.7795H76.063V47.234H75.019V46.2894H74.9621C74.8367 46.5806 74.6354 46.8233 74.3584 47.0174C74.0838 47.2091 73.7417 47.305 73.3322 47.305C72.9818 47.305 72.6717 47.2281 72.4018 47.0742C72.1342 46.918 71.9235 46.6871 71.7697 46.3817C71.6181 46.0763 71.5424 45.6987 71.5424 45.2489V41.7795H72.6042V45.1211C72.6042 45.4928 72.7072 45.7887 72.9131 46.0089C73.1191 46.229 73.3866 46.3391 73.7157 46.3391C73.9146 46.3391 74.1122 46.2894 74.3087 46.19C74.5076 46.0905 74.6721 45.9402 74.8023 45.739C74.9349 45.5377 75 45.2821 74.9976 44.9719ZM80.0358 41.7795V42.6317H77.0564V41.7795H80.0358ZM77.8554 40.4726H78.9172V45.6324C78.9172 45.8384 78.948 45.9935 79.0095 46.0976C79.0711 46.1994 79.1504 46.2693 79.2475 46.3072C79.3469 46.3427 79.4546 46.3604 79.5706 46.3604C79.6559 46.3604 79.7304 46.3545 79.7943 46.3427C79.8583 46.3308 79.908 46.3214 79.9435 46.3143L80.1353 47.1914C80.0737 47.2151 79.9861 47.2387 79.8725 47.2624C79.7588 47.2885 79.6168 47.3027 79.4463 47.305C79.167 47.3098 78.9066 47.26 78.6651 47.1559C78.4236 47.0517 78.2283 46.8907 78.0791 46.6729C77.93 46.4551 77.8554 46.1817 77.8554 45.8526V40.4726ZM81.2104 47.234V41.7795H82.2722V47.234H81.2104ZM81.7466 40.9378C81.5619 40.9378 81.4033 40.8763 81.2707 40.7532C81.1405 40.6277 81.0754 40.4786 81.0754 40.3057C81.0754 40.1305 81.1405 39.9814 81.2707 39.8583C81.4033 39.7328 81.5619 39.6701 81.7466 39.6701C81.9312 39.6701 82.0887 39.7328 82.2189 39.8583C82.3515 39.9814 82.4177 40.1305 82.4177 40.3057C82.4177 40.4786 82.3515 40.6277 82.2189 40.7532C82.0887 40.8763 81.9312 40.9378 81.7466 40.9378ZM87.3831 49.2795V46.3853H87.3192C87.2553 46.5013 87.163 46.6339 87.0422 46.783C86.9238 46.9322 86.7605 47.0624 86.5522 47.1736C86.3438 47.2849 86.0739 47.3405 85.7425 47.3405C85.3022 47.3405 84.9092 47.2281 84.5635 47.0032C84.2202 46.7759 83.9504 46.4528 83.7539 46.0337C83.5597 45.6123 83.4627 45.1069 83.4627 44.5174C83.4627 43.9279 83.5609 43.4236 83.7574 43.0046C83.9563 42.5856 84.2285 42.2648 84.5742 42.0422C84.9198 41.8197 85.3116 41.7084 85.7496 41.7084C86.0881 41.7084 86.3604 41.7653 86.5664 41.8789C86.7747 41.9902 86.9357 42.1204 87.0493 42.2695C87.1653 42.4187 87.2553 42.5501 87.3192 42.6637H87.408V41.7795H88.4449V49.2795H87.3831ZM85.9769 46.435C86.2823 46.435 86.5403 46.3545 86.751 46.1935C86.9641 46.0302 87.1251 45.8041 87.234 45.5153C87.3452 45.2264 87.4009 44.8903 87.4009 44.5067C87.4009 44.1279 87.3464 43.7965 87.2375 43.5124C87.1286 43.2283 86.9688 43.007 86.7581 42.8483C86.5474 42.6897 86.287 42.6104 85.9769 42.6104C85.6573 42.6104 85.3909 42.6933 85.1779 42.859C84.9648 43.0247 84.8038 43.2508 84.6949 43.5373C84.5884 43.8237 84.5351 44.1469 84.5351 44.5067C84.5351 44.8713 84.5896 45.1992 84.6985 45.4904C84.8074 45.7816 84.9684 46.0124 85.1814 46.1829C85.3969 46.351 85.662 46.435 85.9769 46.435ZM93.3277 44.9719V41.7795H94.3931V47.234H93.349V46.2894H93.2922C93.1667 46.5806 92.9655 46.8233 92.6885 47.0174C92.4139 47.2091 92.0718 47.305 91.6622 47.305C91.3119 47.305 91.0017 47.2281 90.7318 47.0742C90.4643 46.918 90.2536 46.6871 90.0997 46.3817C89.9482 46.0763 89.8725 45.6987 89.8725 45.2489V41.7795H90.9343V45.1211C90.9343 45.4928 91.0372 45.7887 91.2432 46.0089C91.4492 46.229 91.7167 46.3391 92.0458 46.3391C92.2446 46.3391 92.4423 46.2894 92.6388 46.19C92.8377 46.0905 93.0022 45.9402 93.1324 45.739C93.265 45.5377 93.3301 45.2821 93.3277 44.9719ZM98.1706 47.3441C97.6332 47.3441 97.1704 47.2293 96.7821 46.9996C96.3962 46.7676 96.0979 46.4421 95.8872 46.0231C95.6789 45.6017 95.5747 45.1081 95.5747 44.5422C95.5747 43.9835 95.6789 43.4911 95.8872 43.065C96.0979 42.6388 96.3915 42.3062 96.7679 42.0671C97.1467 41.828 97.5894 41.7084 98.096 41.7084C98.4038 41.7084 98.7021 41.7593 98.9909 41.8611C99.2797 41.9629 99.539 42.1227 99.7686 42.3405C99.9982 42.5583 100.179 42.8412 100.312 43.1893C100.444 43.5349 100.511 43.9551 100.511 44.4499V44.8263H96.1748V44.0309H99.4703C99.4703 43.7515 99.4135 43.5041 99.2998 43.2887C99.1862 43.0709 99.0264 42.8992 98.8204 42.7738C98.6168 42.6483 98.3777 42.5856 98.1031 42.5856C97.8048 42.5856 97.5444 42.659 97.3219 42.8057C97.1017 42.9501 96.9312 43.1395 96.8105 43.3739C96.6921 43.6059 96.6329 43.8581 96.6329 44.1303V44.7518C96.6329 45.1163 96.6969 45.4265 96.8247 45.6822C96.9549 45.9378 97.136 46.1331 97.368 46.2681C97.6 46.4007 97.8711 46.467 98.1812 46.467C98.3825 46.467 98.5659 46.4385 98.7317 46.3817C98.8974 46.3225 99.0406 46.2349 99.1614 46.1189C99.2821 46.0029 99.3744 45.8597 99.4383 45.6893L100.443 45.8704C100.363 46.1663 100.218 46.4255 100.01 46.6481C99.8041 46.8682 99.5449 47.0399 99.2324 47.163C98.9222 47.2837 98.5683 47.3441 98.1706 47.3441Z" fill="#4A4A4A"/>
</svg>
