<svg width="190" height="19" viewBox="0 0 190 19" fill="none" xmlns="http://www.w3.org/2000/svg">
<g clip-path="url(#clip0_32_252)">
<mask id="mask0_32_252" style="mask-type:luminance" maskUnits="userSpaceOnUse" x="0" y="1" width="28" height="17">
<path d="M28 1H0V18H28V1Z" fill="white"/>
</mask>
<g mask="url(#mask0_32_252)">
<path fill-rule="evenodd" clip-rule="evenodd" d="M22.4947 16.9878C23.9153 16.2977 25.1131 15.2219 25.9512 13.8832C26.7892 12.5446 27.2336 10.9971 27.2337 9.41777V9.41577C27.2338 7.91126 26.8306 6.43421 26.0661 5.13842C25.3016 3.84263 24.2037 2.77548 22.8867 2.04806C21.5697 1.32065 20.0818 0.959578 18.5779 1.00244C17.074 1.0453 15.6091 1.49053 14.3357 2.29177C15.3932 3.15377 16.2457 4.24039 16.8311 5.47278C17.4165 6.70516 17.7202 8.05241 17.7202 9.41677C17.7202 10.7811 17.4165 12.1284 16.8311 13.3608C16.2457 14.5932 15.3932 15.6798 14.3357 16.5418C15.5459 17.3032 16.9302 17.7437 18.3579 17.8217C19.7856 17.8997 21.2087 17.6127 22.4947 16.9878ZM13.0247 16.4618C11.9956 15.5992 11.1679 14.5217 10.6 13.3049C10.032 12.0882 9.73757 10.7618 9.73729 9.41897C9.737 8.07619 10.0309 6.74965 10.5983 5.53266C11.1658 4.31566 11.993 3.23776 13.0217 2.37477C11.7518 1.54435 10.2811 1.07264 8.7651 1.00954C7.24912 0.946432 5.74427 1.29429 4.40978 2.0163C3.07528 2.73831 1.96077 3.80763 1.18416 5.11111C0.407548 6.41458 -0.00227606 7.90375 -0.00195293 9.42105C-0.00162981 10.9383 0.408828 12.4273 1.18599 13.7305C1.96316 15.0336 3.07813 16.1025 4.41293 16.8239C5.74773 17.5454 7.25273 17.8926 8.76868 17.8288C10.2846 17.7651 11.7552 17.2927 13.0247 16.4618Z" fill="#4A4A4A"/>
<path fill-rule="evenodd" clip-rule="evenodd" d="M13.7305 15.5338C14.617 14.7801 15.3291 13.8428 15.8174 12.7867C16.3058 11.7305 16.5587 10.5809 16.5587 9.41728C16.5587 8.25371 16.3058 7.10404 15.8174 6.04791C15.3291 4.99178 14.617 4.05443 13.7305 3.30078C12.8443 4.05452 12.1324 4.99185 11.6443 6.04787C11.1561 7.1039 10.9033 8.25339 10.9033 9.41678C10.9033 10.5802 11.1561 11.7297 11.6443 12.7857C12.1324 13.8417 12.8443 14.78 13.7305 15.5338Z" fill="#4A4A4A"/>
</g>
<mask id="mask1_32_252" style="mask-type:luminance" maskUnits="userSpaceOnUse" x="39" y="2" width="41" height="14">
<path d="M80 2H39V16H80V2Z" fill="white"/>
</mask>
<g mask="url(#mask1_32_252)">
<path fill-rule="evenodd" clip-rule="evenodd" d="M68.807 2.5401C67.8554 2.17814 66.8451 1.99506 65.827 2.0001C62.547 2.0001 60.238 3.7301 60.224 6.2021C60.197 8.0261 61.878 9.0391 63.134 9.6471C64.42 10.2691 64.857 10.6751 64.857 11.2291C64.843 12.0791 63.818 12.4721 62.862 12.4721C61.536 12.4721 60.826 12.2691 59.746 11.7961L59.308 11.5931L58.844 14.4441C59.623 14.7951 61.058 15.1061 62.548 15.1201C66.033 15.1201 68.302 13.4171 68.328 10.7831C68.342 9.3371 67.454 8.2291 65.541 7.3231C64.379 6.7431 63.667 6.3511 63.667 5.7561C63.681 5.2161 64.269 4.6621 65.58 4.6621C66.4309 4.63718 67.2767 4.80325 68.055 5.1481L68.355 5.2831L68.807 2.5401ZM56.767 14.9301H53.445L55.523 2.2301H58.843L56.767 14.9301ZM77.32 2.2301H74.75C73.958 2.2301 73.356 2.4601 73.015 3.2841L68.081 14.9311H71.566L72.263 13.0251H76.527C76.623 13.4711 76.924 14.9301 76.924 14.9301H80L77.32 2.2301ZM73.22 10.4311L74.546 6.8781C74.54 6.8881 74.584 6.7701 74.648 6.5931C74.744 6.3311 74.885 5.9431 74.983 5.6621L75.215 6.7561C75.215 6.7561 75.844 9.7961 75.98 10.4311H73.22ZM50.67 2.2311L47.42 10.8901L47.064 9.1331L45.903 3.2971C45.71 2.4871 45.122 2.2571 44.398 2.2301H39.055L39 2.4871C40.303 2.8171 41.469 3.2911 42.49 3.8821L45.45 14.9171H48.963L54.183 2.2301H50.671L50.67 2.2311Z" fill="#4A4A4A"/>
</g>
<mask id="mask2_32_252" style="mask-type:luminance" maskUnits="userSpaceOnUse" x="91" y="0" width="46" height="19">
<path d="M137 0.5H91V18.5H137V0.5Z" fill="white"/>
</mask>
<g mask="url(#mask2_32_252)">
<mask id="mask3_32_252" style="mask-type:luminance" maskUnits="userSpaceOnUse" x="91" y="0" width="46" height="19">
<path d="M91 0.5H137V18.5H91V0.5Z" fill="white"/>
</mask>
<g mask="url(#mask3_32_252)">
<path d="M112.757 9.29297V14.57H111.06V1.53997H115.565C116.102 1.52868 116.636 1.62243 117.138 1.81597C117.638 2.00997 118.096 2.29897 118.482 2.66697C118.872 3.01397 119.184 3.43797 119.394 3.91197C119.604 4.38697 119.709 4.89997 119.701 5.41697C119.712 5.93798 119.609 6.45514 119.399 6.93197C119.187 7.41049 118.874 7.83734 118.482 8.18297C117.694 8.92297 116.722 9.29297 115.565 9.29297H112.757ZM112.757 3.14297V7.69297H115.607C115.918 7.70163 116.228 7.64628 116.517 7.53034C116.806 7.4144 117.068 7.24035 117.287 7.01897C117.503 6.81396 117.675 6.56703 117.793 6.29323C117.911 6.01943 117.971 5.72452 117.971 5.42647C117.971 5.12843 117.911 4.83352 117.793 4.55972C117.675 4.28592 117.503 4.03898 117.287 3.83397C117.07 3.6081 116.809 3.42996 116.52 3.31096C116.23 3.19197 115.919 3.13475 115.607 3.14297H112.757ZM123.614 5.36397C124.87 5.36397 125.861 5.69397 126.587 6.35597C127.314 7.01597 127.677 7.92297 127.677 9.07597V14.57H126.05V13.333H125.976C125.273 14.352 124.338 14.861 123.17 14.861C122.173 14.861 121.34 14.571 120.668 13.988C120.347 13.7217 120.089 13.3868 119.915 13.008C119.741 12.6312 119.654 12.2199 119.662 11.805C119.662 10.882 120.015 10.148 120.723 9.60397C121.431 9.05897 122.375 8.78597 123.557 8.78397C124.566 8.78397 125.397 8.96597 126.049 9.32997V8.94797C126.051 8.66408 125.989 8.38332 125.868 8.12668C125.747 7.87004 125.569 7.64417 125.348 7.46597C124.896 7.06571 124.311 6.84822 123.708 6.85597C122.759 6.85597 122.008 7.24997 121.455 8.03897L119.96 7.10997C120.783 5.94597 122.001 5.36397 123.614 5.36397ZM121.416 11.841C121.414 12.0551 121.465 12.2664 121.563 12.4566C121.661 12.6469 121.804 12.8103 121.98 12.933C122.355 13.223 122.822 13.378 123.3 13.369C124.014 13.3686 124.7 13.0882 125.21 12.588C125.773 12.066 126.054 11.453 126.054 10.75C125.524 10.334 124.786 10.127 123.839 10.127C123.149 10.127 122.573 10.29 122.113 10.618C121.647 10.951 121.416 11.355 121.416 11.841ZM137.004 5.65497L131.332 18.5H129.578L131.683 14.005L127.953 5.65497H129.8L132.495 12.059H132.532L135.154 5.65497H137.004ZM105.893 8.15597C105.893 7.64597 105.85 7.13697 105.762 6.63397H98.5977V9.51697H102.7C102.616 9.97697 102.438 10.417 102.178 10.807C101.917 11.199 101.578 11.533 101.183 11.792V13.664H103.632C105.066 12.361 105.893 10.434 105.893 8.15597Z" fill="#4A4A4A"/>
<path d="M98.5956 15.472C100.646 15.472 102.372 14.808 103.631 13.665L101.182 11.793C100.501 12.249 99.6216 12.508 98.5956 12.508C96.6146 12.508 94.9326 11.192 94.3306 9.41797H91.8096V11.348C92.4456 12.5916 93.4151 13.6338 94.6096 14.358C95.8116 15.0872 97.1897 15.4725 98.5956 15.472Z" fill="#4A4A4A"/>
<path d="M94.3318 9.418C94.0139 8.48945 94.0139 7.48155 94.3318 6.553V4.625H91.8088C91.2778 5.6658 91.001 6.81759 91.001 7.986C91.001 9.15441 91.2778 10.3062 91.8088 11.347L94.3318 9.418Z" fill="#4A4A4A"/>
<path d="M98.5956 3.4631C99.6759 3.4446 100.721 3.84737 101.51 4.5861L103.679 2.4491C102.296 1.17367 100.477 0.476254 98.5956 0.500104C97.19 0.499738 95.8113 0.88506 94.6096 1.6141C93.4151 2.33823 92.4456 3.38042 91.8096 4.6241L94.3296 6.5531C94.9316 4.7791 96.6146 3.4631 98.5956 3.4631Z" fill="#4A4A4A"/>
</g>
</g>
<mask id="mask4_32_252" style="mask-type:luminance" maskUnits="userSpaceOnUse" x="148" y="0" width="42" height="18">
<path d="M190 0H148V18H190V0Z" fill="white"/>
</mask>
<g mask="url(#mask4_32_252)">
<path d="M155.938 2.321C156.432 1.696 156.768 0.857 156.679 0C155.955 0.036 155.072 0.482 154.561 1.108C154.101 1.643 153.695 2.518 153.801 3.338C154.614 3.41 155.426 2.928 155.938 2.321ZM156.67 3.5C155.952 3.456 155.3 3.716 154.772 3.926C154.432 4.061 154.144 4.176 153.923 4.176C153.68 4.176 153.381 4.056 153.044 3.922C152.601 3.746 152.094 3.542 151.564 3.552C150.348 3.571 149.221 4.265 148.604 5.368C147.337 7.576 148.27 10.851 149.504 12.649C150.102 13.539 150.824 14.519 151.774 14.483C152.191 14.467 152.49 14.339 152.8 14.207C153.158 14.054 153.531 13.895 154.117 13.895C154.676 13.895 155.031 14.049 155.373 14.197C155.699 14.338 156.013 14.474 156.476 14.465C157.463 14.447 158.079 13.575 158.678 12.685C159.329 11.723 159.616 10.793 159.658 10.653L159.664 10.638L159.64 10.626C159.419 10.524 157.761 9.754 157.745 7.7C157.728 5.977 159.05 5.103 159.267 4.96C159.276 4.95356 159.285 4.94689 159.294 4.94C158.45 3.679 157.128 3.536 156.67 3.5ZM166.945 1.017C169.51 1.017 171.295 2.804 171.295 5.404C171.295 8.014 169.473 9.809 166.881 9.809H164.041V14.371H161.989V1.017H166.945ZM164.04 8.07H166.394C168.18 8.07 169.197 7.099 169.197 5.414C169.197 3.73 168.18 2.768 166.403 2.768H164.04V8.07ZM175.412 8.728C173.122 8.858 171.831 9.903 171.831 11.606C171.831 13.355 173.15 14.54 175.037 14.54C176.301 14.54 177.519 13.855 178.077 12.772H178.124V14.373H180.02V7.663C180.02 5.711 178.527 4.462 176.19 4.462C173.81 4.462 172.325 5.757 172.216 7.516H174.084C174.258 6.646 174.973 6.091 176.118 6.091C177.327 6.091 178.05 6.738 178.05 7.821V8.571L175.412 8.728ZM178.05 9.959V10.727C178.05 11.995 176.97 12.957 175.586 12.957C174.524 12.957 173.828 12.402 173.828 11.551C173.828 10.718 174.496 10.191 175.678 10.107L178.05 9.959ZM181.81 16.335V17.955C181.956 17.982 182.451 18.001 182.616 18.001C184.613 18.001 185.566 17.242 186.39 14.882L190 4.637H187.912L185.475 12.559H185.438L183.001 4.637H180.858L184.339 14.382C184.339 14.386 184.309 14.486 184.274 14.604C184.224 14.771 184.164 14.972 184.164 14.984C183.863 15.983 183.368 16.371 182.452 16.371C182.287 16.371 181.957 16.371 181.811 16.334L181.81 16.335Z" fill="#4A4A4A"/>
</g>
</g>
<defs>
<clipPath id="clip0_32_252">
<rect width="190" height="19" fill="white"/>
</clipPath>
</defs>
</svg>
